<?xml version="1.0" encoding="UTF-8" standalone="no"?>
<!DOCTYPE svg PUBLIC "-//W3C//DTD SVG 1.1//EN"
 "http://www.w3.org/Graphics/SVG/1.1/DTD/svg11.dtd">
<!-- Generated by graphviz version 2.46.1 (20210213.1702)
 -->
<!-- Pages: 1 -->
<svg width="1873pt" height="733pt"
 viewBox="0.00 0.00 1873.37 732.55" xmlns="http://www.w3.org/2000/svg" xmlns:xlink="http://www.w3.org/1999/xlink">
<g id="graph0" class="graph" transform="scale(1 1) rotate(0) translate(4 728.55)">
<polygon fill="white" stroke="transparent" points="-4,4 -4,-728.55 1869.37,-728.55 1869.37,4 -4,4"/>
<!-- nano_3qt7yt39jnzq516npbiicqy4oijoez3icpgbfbqxeayfgazyzrnk8qd4bdtf -->
<g id="node1" class="node">
<title>nano_3qt7yt39jnzq516npbiicqy4oijoez3icpgbfbqxeayfgazyzrnk8qd4bdtf</title>
<ellipse fill="none" stroke="black" cx="273.63" cy="-402.55" rx="273.75" ry="18"/>
<text text-anchor="middle" x="273.63" y="-398.85" font-family="Times New Roman,serif" font-size="14.00">nano_3qt7yt39jnzq516npbiicqy4oijoez3icpgbfbqxeayfgazyzrnk8qd4bdtf</text>
</g>
<!-- nano_1mzmwktsuayytipudnh6g53whsjzr8oiajbyom8krdrtm59dueixjepjf5fn -->
<g id="node2" class="node">
<title>nano_1mzmwktsuayytipudnh6g53whsjzr8oiajbyom8krdrtm59dueixjepjf5fn</title>
<g id="a_node2"><a xlink:href="https://nanocrawler.cc/explorer/account/nano_1mzmwktsuayytipudnh6g53whsjzr8oiajbyom8krdrtm59dueixjepjf5fn/history" xlink:title="nano_1mzmw">
<ellipse fill="none" stroke="black" cx="697" cy="-643.55" rx="61.99" ry="18"/>
<text text-anchor="middle" x="697" y="-639.85" font-family="Times New Roman,serif" font-size="14.00">nano_1mzmw</text>
</a>
</g>
</g>
<!-- nano_3qt7yt39jnzq516npbiicqy4oijoez3icpgbfbqxeayfgazyzrnk8qd4bdtf&#45;&gt;nano_1mzmwktsuayytipudnh6g53whsjzr8oiajbyom8krdrtm59dueixjepjf5fn -->
<g id="edge1" class="edge">
<title>nano_3qt7yt39jnzq516npbiicqy4oijoez3icpgbfbqxeayfgazyzrnk8qd4bdtf&#45;&gt;nano_1mzmwktsuayytipudnh6g53whsjzr8oiajbyom8krdrtm59dueixjepjf5fn</title>
<path fill="none" stroke="black" d="M296.23,-420.65C342.71,-458.82 456.8,-548.4 565.25,-601.55 588.57,-612.97 615.72,-622.28 639.22,-629.2"/>
<polygon fill="black" stroke="black" points="638.46,-632.63 649.04,-632.02 640.4,-625.9 638.46,-632.63"/>
<text text-anchor="middle" x="591.25" y="-624.35" font-family="Times New Roman,serif" font-size="14.00">2.000001</text>
</g>
<!-- nano_1z7oxugm9ce8xpt1wh4i5zp47mpfjbneimewmpdo1w6mups88adkmggby1q9 -->
<g id="node3" class="node">
<title>nano_1z7oxugm9ce8xpt1wh4i5zp47mpfjbneimewmpdo1w6mups88adkmggby1q9</title>
<g id="a_node3"><a xlink:href="https://nanocrawler.cc/explorer/account/nano_1z7oxugm9ce8xpt1wh4i5zp47mpfjbneimewmpdo1w6mups88adkmggby1q9/history" xlink:title="nano_1z7ox">
<ellipse fill="none" stroke="black" cx="697" cy="-351.55" rx="55.49" ry="18"/>
<text text-anchor="middle" x="697" y="-347.85" font-family="Times New Roman,serif" font-size="14.00">nano_1z7ox</text>
</a>
</g>
</g>
<!-- nano_3qt7yt39jnzq516npbiicqy4oijoez3icpgbfbqxeayfgazyzrnk8qd4bdtf&#45;&gt;nano_1z7oxugm9ce8xpt1wh4i5zp47mpfjbneimewmpdo1w6mups88adkmggby1q9 -->
<g id="edge2" class="edge">
<title>nano_3qt7yt39jnzq516npbiicqy4oijoez3icpgbfbqxeayfgazyzrnk8qd4bdtf&#45;&gt;nano_1z7oxugm9ce8xpt1wh4i5zp47mpfjbneimewmpdo1w6mups88adkmggby1q9</title>
<path fill="none" stroke="black" d="M405.06,-386.76C481.72,-377.48 575.04,-366.19 634.97,-358.93"/>
<polygon fill="black" stroke="black" points="635.52,-362.39 645.02,-357.71 634.67,-355.44 635.52,-362.39"/>
<text text-anchor="middle" x="591.25" y="-370.35" font-family="Times New Roman,serif" font-size="14.00">1.02</text>
</g>
<!-- nano_1ijmp98wncewk48ak87rhkwwej3fissfe4anjnnxk7ifernrnp3wxryqop81 -->
<g id="node4" class="node">
<title>nano_1ijmp98wncewk48ak87rhkwwej3fissfe4anjnnxk7ifernrnp3wxryqop81</title>
<g id="a_node4"><a xlink:href="https://nanocrawler.cc/explorer/account/nano_1ijmp98wncewk48ak87rhkwwej3fissfe4anjnnxk7ifernrnp3wxryqop81/history" xlink:title="nano_1ijmp">
<ellipse fill="none" stroke="black" cx="697" cy="-422.55" rx="53.09" ry="18"/>
<text text-anchor="middle" x="697" y="-418.85" font-family="Times New Roman,serif" font-size="14.00">nano_1ijmp</text>
</a>
</g>
</g>
<!-- nano_3qt7yt39jnzq516npbiicqy4oijoez3icpgbfbqxeayfgazyzrnk8qd4bdtf&#45;&gt;nano_1ijmp98wncewk48ak87rhkwwej3fissfe4anjnnxk7ifernrnp3wxryqop81 -->
<g id="edge3" class="edge">
<title>nano_3qt7yt39jnzq516npbiicqy4oijoez3icpgbfbqxeayfgazyzrnk8qd4bdtf&#45;&gt;nano_1ijmp98wncewk48ak87rhkwwej3fissfe4anjnnxk7ifernrnp3wxryqop81</title>
<path fill="none" stroke="black" d="M496.11,-413.06C546.73,-415.46 596.51,-417.82 633.73,-419.59"/>
<polygon fill="black" stroke="black" points="633.74,-423.09 643.89,-420.07 634.07,-416.1 633.74,-423.09"/>
<text text-anchor="middle" x="591.25" y="-422.35" font-family="Times New Roman,serif" font-size="14.00">1.01</text>
</g>
<!-- nano_1afxwzsdmti5we4xkxkxikuodegahnyi3ijio64aafduecm5kq9axwbxtkxx -->
<g id="node5" class="node">
<title>nano_1afxwzsdmti5we4xkxkxikuodegahnyi3ijio64aafduecm5kq9axwbxtkxx</title>
<g id="a_node5"><a xlink:href="https://nanocrawler.cc/explorer/account/nano_1afxwzsdmti5we4xkxkxikuodegahnyi3ijio64aafduecm5kq9axwbxtkxx/history" xlink:title="nano_1afxw">
<ellipse fill="none" stroke="black" cx="697" cy="-524.55" rx="55.49" ry="18"/>
<text text-anchor="middle" x="697" y="-520.85" font-family="Times New Roman,serif" font-size="14.00">nano_1afxw</text>
</a>
</g>
</g>
<!-- nano_3qt7yt39jnzq516npbiicqy4oijoez3icpgbfbqxeayfgazyzrnk8qd4bdtf&#45;&gt;nano_1afxwzsdmti5we4xkxkxikuodegahnyi3ijio64aafduecm5kq9axwbxtkxx -->
<g id="edge4" class="edge">
<title>nano_3qt7yt39jnzq516npbiicqy4oijoez3icpgbfbqxeayfgazyzrnk8qd4bdtf&#45;&gt;nano_1afxwzsdmti5we4xkxkxikuodegahnyi3ijio64aafduecm5kq9axwbxtkxx</title>
<path fill="none" stroke="black" d="M335.45,-420.15C418.88,-444.31 567.31,-487.29 645.15,-509.82"/>
<polygon fill="black" stroke="black" points="644.62,-513.31 655.2,-512.73 646.57,-506.59 644.62,-513.31"/>
<text text-anchor="middle" x="591.25" y="-504.35" font-family="Times New Roman,serif" font-size="14.00">1.01</text>
</g>
<!-- nano_1urt4m979igp1bfrnrajswarfscj7aw5gdsy7jkzgbhmob5zcayjq5hqwe9e -->
<g id="node6" class="node">
<title>nano_1urt4m979igp1bfrnrajswarfscj7aw5gdsy7jkzgbhmob5zcayjq5hqwe9e</title>
<g id="a_node6"><a xlink:href="https://nanocrawler.cc/explorer/account/nano_1urt4m979igp1bfrnrajswarfscj7aw5gdsy7jkzgbhmob5zcayjq5hqwe9e/history" xlink:title="nano_1urt4">
<ellipse fill="none" stroke="black" cx="905.24" cy="-587.55" rx="51.99" ry="18"/>
<text text-anchor="middle" x="905.24" y="-583.85" font-family="Times New Roman,serif" font-size="14.00">nano_1urt4</text>
</a>
</g>
</g>
<!-- nano_3qt7yt39jnzq516npbiicqy4oijoez3icpgbfbqxeayfgazyzrnk8qd4bdtf&#45;&gt;nano_1urt4m979igp1bfrnrajswarfscj7aw5gdsy7jkzgbhmob5zcayjq5hqwe9e -->
<g id="edge5" class="edge">
<title>nano_3qt7yt39jnzq516npbiicqy4oijoez3icpgbfbqxeayfgazyzrnk8qd4bdtf&#45;&gt;nano_1urt4m979igp1bfrnrajswarfscj7aw5gdsy7jkzgbhmob5zcayjq5hqwe9e</title>
<path fill="none" stroke="black" d="M309.96,-420.48C373.43,-451.92 511.64,-516.93 635.25,-551.55 696.53,-568.71 713.65,-565.18 776.74,-573.55 799.04,-576.5 823.59,-579.3 845.14,-581.61"/>
<polygon fill="black" stroke="black" points="844.82,-585.1 855.13,-582.67 845.56,-578.14 844.82,-585.1"/>
<text text-anchor="middle" x="697" y="-574.35" font-family="Times New Roman,serif" font-size="14.00">1.034999</text>
</g>
<!-- nano_1jdtpk7p76exs17m5pkjub9zku4dmek6dzmoqtbiub5iahkggoj9uhna1xcb -->
<g id="node7" class="node">
<title>nano_1jdtpk7p76exs17m5pkjub9zku4dmek6dzmoqtbiub5iahkggoj9uhna1xcb</title>
<g id="a_node7"><a xlink:href="https://nanocrawler.cc/explorer/account/nano_1jdtpk7p76exs17m5pkjub9zku4dmek6dzmoqtbiub5iahkggoj9uhna1xcb/history" xlink:title="nano_1jdtp">
<ellipse fill="none" stroke="black" cx="697" cy="-110.55" rx="51.99" ry="18"/>
<text text-anchor="middle" x="697" y="-106.85" font-family="Times New Roman,serif" font-size="14.00">nano_1jdtp</text>
</a>
</g>
</g>
<!-- nano_3qt7yt39jnzq516npbiicqy4oijoez3icpgbfbqxeayfgazyzrnk8qd4bdtf&#45;&gt;nano_1jdtpk7p76exs17m5pkjub9zku4dmek6dzmoqtbiub5iahkggoj9uhna1xcb -->
<g id="edge6" class="edge">
<title>nano_3qt7yt39jnzq516npbiicqy4oijoez3icpgbfbqxeayfgazyzrnk8qd4bdtf&#45;&gt;nano_1jdtpk7p76exs17m5pkjub9zku4dmek6dzmoqtbiub5iahkggoj9uhna1xcb</title>
<path fill="none" stroke="black" d="M292.46,-384.32C335.74,-340.92 451.22,-230.04 565.25,-162.55 591.05,-147.28 622.15,-134.7 647.55,-125.74"/>
<polygon fill="black" stroke="black" points="649.03,-128.93 657.34,-122.36 646.75,-122.32 649.03,-128.93"/>
<text text-anchor="middle" x="591.25" y="-166.35" font-family="Times New Roman,serif" font-size="14.00">1.01</text>
</g>
<!-- nano_3r3maaoa4a15rxy587gg9minmayyfb3b5r6ynhywgtdey6pjkyn1tb3c7r4x -->
<g id="node8" class="node">
<title>nano_3r3maaoa4a15rxy587gg9minmayyfb3b5r6ynhywgtdey6pjkyn1tb3c7r4x</title>
<g id="a_node8"><a xlink:href="https://nanocrawler.cc/explorer/account/nano_3r3maaoa4a15rxy587gg9minmayyfb3b5r6ynhywgtdey6pjkyn1tb3c7r4x/history" xlink:title="nano_3r3ma">
<ellipse fill="none" stroke="black" cx="697" cy="-174.55" rx="55.79" ry="18"/>
<text text-anchor="middle" x="697" y="-170.85" font-family="Times New Roman,serif" font-size="14.00">nano_3r3ma</text>
</a>
</g>
</g>
<!-- nano_3qt7yt39jnzq516npbiicqy4oijoez3icpgbfbqxeayfgazyzrnk8qd4bdtf&#45;&gt;nano_3r3maaoa4a15rxy587gg9minmayyfb3b5r6ynhywgtdey6pjkyn1tb3c7r4x -->
<g id="edge7" class="edge">
<title>nano_3qt7yt39jnzq516npbiicqy4oijoez3icpgbfbqxeayfgazyzrnk8qd4bdtf&#45;&gt;nano_3r3maaoa4a15rxy587gg9minmayyfb3b5r6ynhywgtdey6pjkyn1tb3c7r4x</title>
<path fill="none" stroke="black" d="M293.15,-384.53C336.59,-343.45 450.05,-242.78 565.25,-195.55 586,-187.04 609.92,-181.97 631.58,-178.94"/>
<polygon fill="black" stroke="black" points="632.21,-182.39 641.69,-177.66 631.32,-175.45 632.21,-182.39"/>
<text text-anchor="middle" x="591.25" y="-199.35" font-family="Times New Roman,serif" font-size="14.00">2.235</text>
</g>
<!-- nano_1qqekerd1dand9j78ec6rsrhrac6rptiuwei86eh3fkdmw9r5khtwdtgfd4w -->
<g id="node9" class="node">
<title>nano_1qqekerd1dand9j78ec6rsrhrac6rptiuwei86eh3fkdmw9r5khtwdtgfd4w</title>
<g id="a_node9"><a xlink:href="https://nanocrawler.cc/explorer/account/nano_1qqekerd1dand9j78ec6rsrhrac6rptiuwei86eh3fkdmw9r5khtwdtgfd4w/history" xlink:title="nano_1qqek">
<ellipse fill="none" stroke="black" cx="1171.96" cy="-216.55" rx="55.79" ry="18"/>
<text text-anchor="middle" x="1171.96" y="-212.85" font-family="Times New Roman,serif" font-size="14.00">nano_1qqek</text>
</a>
</g>
</g>
<!-- nano_3qt7yt39jnzq516npbiicqy4oijoez3icpgbfbqxeayfgazyzrnk8qd4bdtf&#45;&gt;nano_1qqekerd1dand9j78ec6rsrhrac6rptiuwei86eh3fkdmw9r5khtwdtgfd4w -->
<g id="edge8" class="edge">
<title>nano_3qt7yt39jnzq516npbiicqy4oijoez3icpgbfbqxeayfgazyzrnk8qd4bdtf&#45;&gt;nano_1qqekerd1dand9j78ec6rsrhrac6rptiuwei86eh3fkdmw9r5khtwdtgfd4w</title>
<path fill="none" stroke="black" d="M317.68,-384.73C403.35,-350.18 602.01,-274.57 776.74,-241.55 891.05,-219.94 1026.97,-215.99 1105.66,-215.78"/>
<polygon fill="black" stroke="black" points="1105.91,-219.28 1115.91,-215.78 1105.91,-212.28 1105.91,-219.28"/>
<text text-anchor="middle" x="802.74" y="-245.35" font-family="Times New Roman,serif" font-size="14.00">5.55</text>
</g>
<!-- nano_1ewpuigknz9k9xug77xw8d8w1auyuas35k3y1oxbcap64rx3pdi8wzbo5o5w -->
<g id="node13" class="node">
<title>nano_1ewpuigknz9k9xug77xw8d8w1auyuas35k3y1oxbcap64rx3pdi8wzbo5o5w</title>
<g id="a_node13"><a xlink:href="https://nanocrawler.cc/explorer/account/nano_1ewpuigknz9k9xug77xw8d8w1auyuas35k3y1oxbcap64rx3pdi8wzbo5o5w/history" xlink:title="nano_1ewpu">
<ellipse fill="none" stroke="black" cx="1038.93" cy="-660.55" rx="57.39" ry="18"/>
<text text-anchor="middle" x="1038.93" y="-656.85" font-family="Times New Roman,serif" font-size="14.00">nano_1ewpu</text>
</a>
</g>
</g>
<!-- nano_1mzmwktsuayytipudnh6g53whsjzr8oiajbyom8krdrtm59dueixjepjf5fn&#45;&gt;nano_1ewpuigknz9k9xug77xw8d8w1auyuas35k3y1oxbcap64rx3pdi8wzbo5o5w -->
<g id="edge14" class="edge">
<title>nano_1mzmwktsuayytipudnh6g53whsjzr8oiajbyom8krdrtm59dueixjepjf5fn&#45;&gt;nano_1ewpuigknz9k9xug77xw8d8w1auyuas35k3y1oxbcap64rx3pdi8wzbo5o5w</title>
<path fill="none" stroke="black" d="M757.99,-646.55C818.02,-649.55 910.13,-654.15 972.13,-657.26"/>
<polygon fill="black" stroke="black" points="972.03,-660.75 982.2,-657.76 972.38,-653.76 972.03,-660.75"/>
<text text-anchor="middle" x="802.74" y="-653.35" font-family="Times New Roman,serif" font-size="14.00">2.000001</text>
</g>
<!-- nano_1yn4ips8wry57sfj4hnkgodyrpu67bgpeassmrne46sg9uhr6obnmkgxyr9q -->
<g id="node10" class="node">
<title>nano_1yn4ips8wry57sfj4hnkgodyrpu67bgpeassmrne46sg9uhr6obnmkgxyr9q</title>
<g id="a_node10"><a xlink:href="https://nanocrawler.cc/explorer/account/nano_1yn4ips8wry57sfj4hnkgodyrpu67bgpeassmrne46sg9uhr6obnmkgxyr9q/history" xlink:title="nano_1yn4i">
<ellipse fill="none" stroke="black" cx="1606.44" cy="-257.55" rx="52.79" ry="18"/>
<text text-anchor="middle" x="1606.44" y="-253.85" font-family="Times New Roman,serif" font-size="14.00">nano_1yn4i</text>
</a>
</g>
</g>
<!-- nano_1z7oxugm9ce8xpt1wh4i5zp47mpfjbneimewmpdo1w6mups88adkmggby1q9&#45;&gt;nano_1yn4ips8wry57sfj4hnkgodyrpu67bgpeassmrne46sg9uhr6obnmkgxyr9q -->
<g id="edge20" class="edge">
<title>nano_1z7oxugm9ce8xpt1wh4i5zp47mpfjbneimewmpdo1w6mups88adkmggby1q9&#45;&gt;nano_1yn4ips8wry57sfj4hnkgodyrpu67bgpeassmrne46sg9uhr6obnmkgxyr9q</title>
<path fill="none" stroke="black" d="M734.97,-338.31C748.06,-333.9 762.96,-329.18 776.74,-325.55 807.42,-317.45 815.42,-316.6 846.74,-311.55 964.95,-292.46 994.61,-285.89 1114.12,-278.55 1165.44,-275.39 1178.4,-277.5 1229.81,-278.55 1295.53,-279.88 1311.87,-283.21 1377.6,-284.55 1447.98,-285.97 1467,-291.5 1535.79,-276.55 1542.37,-275.11 1549.26,-273.45 1556.04,-271.7"/>
<polygon fill="black" stroke="black" points="1557.06,-275.05 1565.84,-269.12 1555.27,-268.29 1557.06,-275.05"/>
<text text-anchor="middle" x="1171.96" y="-282.35" font-family="Times New Roman,serif" font-size="14.00">15.795</text>
</g>
<!-- nano_37h1aqpeesn5xap4mjjjj9gnmdkyptn8mmmb1xhx8m6176h8emaeps5wq67q -->
<g id="node14" class="node">
<title>nano_37h1aqpeesn5xap4mjjjj9gnmdkyptn8mmmb1xhx8m6176h8emaeps5wq67q</title>
<g id="a_node14"><a xlink:href="https://nanocrawler.cc/explorer/account/nano_37h1aqpeesn5xap4mjjjj9gnmdkyptn8mmmb1xhx8m6176h8emaeps5wq67q/history" xlink:title="nano_37h1a">
<ellipse fill="none" stroke="black" cx="1432.19" cy="-397.55" rx="54.69" ry="18"/>
<text text-anchor="middle" x="1432.19" y="-393.85" font-family="Times New Roman,serif" font-size="14.00">nano_37h1a</text>
</a>
</g>
</g>
<!-- nano_1z7oxugm9ce8xpt1wh4i5zp47mpfjbneimewmpdo1w6mups88adkmggby1q9&#45;&gt;nano_37h1aqpeesn5xap4mjjjj9gnmdkyptn8mmmb1xhx8m6176h8emaeps5wq67q -->
<g id="edge21" class="edge">
<title>nano_1z7oxugm9ce8xpt1wh4i5zp47mpfjbneimewmpdo1w6mups88adkmggby1q9&#45;&gt;nano_37h1aqpeesn5xap4mjjjj9gnmdkyptn8mmmb1xhx8m6176h8emaeps5wq67q</title>
<path fill="none" stroke="black" d="M745.39,-342.61C755.7,-340.81 766.57,-339.02 776.74,-337.55 867.47,-324.4 890.19,-319.66 981.73,-314.55 1149.72,-305.15 1204.13,-273.22 1359.6,-337.55 1378.52,-345.37 1396.18,-360.07 1409.24,-372.96"/>
<polygon fill="black" stroke="black" points="1406.88,-375.55 1416.36,-380.27 1411.89,-370.66 1406.88,-375.55"/>
<text text-anchor="middle" x="1038.93" y="-318.35" font-family="Times New Roman,serif" font-size="14.00">2.055</text>
</g>
<!-- nano_3gmobrncois7fe1pn9ue5niqtbsw6jp68oscfxuqptymjs7ebi6fz8sjq1ou -->
<g id="node15" class="node">
<title>nano_3gmobrncois7fe1pn9ue5niqtbsw6jp68oscfxuqptymjs7ebi6fz8sjq1ou</title>
<g id="a_node15"><a xlink:href="https://nanocrawler.cc/explorer/account/nano_3gmobrncois7fe1pn9ue5niqtbsw6jp68oscfxuqptymjs7ebi6fz8sjq1ou/history" xlink:title="nano_3gmob">
<ellipse fill="none" stroke="black" cx="905.24" cy="-418.55" rx="58.49" ry="18"/>
<text text-anchor="middle" x="905.24" y="-414.85" font-family="Times New Roman,serif" font-size="14.00">nano_3gmob</text>
</a>
</g>
</g>
<!-- nano_1z7oxugm9ce8xpt1wh4i5zp47mpfjbneimewmpdo1w6mups88adkmggby1q9&#45;&gt;nano_3gmobrncois7fe1pn9ue5niqtbsw6jp68oscfxuqptymjs7ebi6fz8sjq1ou -->
<g id="edge22" class="edge">
<title>nano_1z7oxugm9ce8xpt1wh4i5zp47mpfjbneimewmpdo1w6mups88adkmggby1q9&#45;&gt;nano_3gmobrncois7fe1pn9ue5niqtbsw6jp68oscfxuqptymjs7ebi6fz8sjq1ou</title>
<path fill="none" stroke="black" d="M736.79,-364.15C770.06,-374.96 818.22,-390.6 854.36,-402.34"/>
<polygon fill="black" stroke="black" points="853.62,-405.78 864.21,-405.54 855.78,-399.12 853.62,-405.78"/>
<text text-anchor="middle" x="802.74" y="-396.35" font-family="Times New Roman,serif" font-size="14.00">2.08</text>
</g>
<!-- nano_1ijmp98wncewk48ak87rhkwwej3fissfe4anjnnxk7ifernrnp3wxryqop81&#45;&gt;nano_37h1aqpeesn5xap4mjjjj9gnmdkyptn8mmmb1xhx8m6176h8emaeps5wq67q -->
<g id="edge15" class="edge">
<title>nano_1ijmp98wncewk48ak87rhkwwej3fissfe4anjnnxk7ifernrnp3wxryqop81&#45;&gt;nano_37h1aqpeesn5xap4mjjjj9gnmdkyptn8mmmb1xhx8m6176h8emaeps5wq67q</title>
<path fill="none" stroke="black" d="M741.41,-432.61C832.11,-452.37 1048.31,-492.87 1229.81,-475.55 1288.29,-469.96 1311.46,-484.21 1359.6,-450.55 1372.34,-441.63 1365.89,-430.77 1377.6,-420.55 1379.6,-418.8 1381.76,-417.17 1384.01,-415.65"/>
<polygon fill="black" stroke="black" points="1386.24,-418.4 1393.1,-410.32 1382.7,-412.36 1386.24,-418.4"/>
<text text-anchor="middle" x="1038.93" y="-482.35" font-family="Times New Roman,serif" font-size="14.00">2.02</text>
</g>
<!-- nano_1ijmp98wncewk48ak87rhkwwej3fissfe4anjnnxk7ifernrnp3wxryqop81&#45;&gt;nano_3gmobrncois7fe1pn9ue5niqtbsw6jp68oscfxuqptymjs7ebi6fz8sjq1ou -->
<g id="edge16" class="edge">
<title>nano_1ijmp98wncewk48ak87rhkwwej3fissfe4anjnnxk7ifernrnp3wxryqop81&#45;&gt;nano_3gmobrncois7fe1pn9ue5niqtbsw6jp68oscfxuqptymjs7ebi6fz8sjq1ou</title>
<path fill="none" stroke="black" d="M750.31,-421.53C776.45,-421.02 808.41,-420.4 836.41,-419.86"/>
<polygon fill="black" stroke="black" points="836.6,-423.36 846.53,-419.66 836.47,-416.36 836.6,-423.36"/>
<text text-anchor="middle" x="802.74" y="-424.35" font-family="Times New Roman,serif" font-size="14.00">2.02</text>
</g>
<!-- nano_1afxwzsdmti5we4xkxkxikuodegahnyi3ijio64aafduecm5kq9axwbxtkxx&#45;&gt;nano_1urt4m979igp1bfrnrajswarfscj7aw5gdsy7jkzgbhmob5zcayjq5hqwe9e -->
<g id="edge11" class="edge">
<title>nano_1afxwzsdmti5we4xkxkxikuodegahnyi3ijio64aafduecm5kq9axwbxtkxx&#45;&gt;nano_1urt4m979igp1bfrnrajswarfscj7aw5gdsy7jkzgbhmob5zcayjq5hqwe9e</title>
<path fill="none" stroke="black" d="M742.53,-534.81C767.98,-541 800.38,-549.44 828.74,-558.55 839.49,-561.99 850.93,-566.14 861.57,-570.2"/>
<polygon fill="black" stroke="black" points="860.49,-573.53 871.07,-573.88 863.02,-567 860.49,-573.53"/>
<text text-anchor="middle" x="802.74" y="-562.35" font-family="Times New Roman,serif" font-size="14.00">1.01</text>
</g>
<!-- nano_33q7mbzzx4urqwjz59pyweiba1scjp7aiemk3wctfwund7mpr4autyed4hy3 -->
<g id="node11" class="node">
<title>nano_33q7mbzzx4urqwjz59pyweiba1scjp7aiemk3wctfwund7mpr4autyed4hy3</title>
<g id="a_node11"><a xlink:href="https://nanocrawler.cc/explorer/account/nano_33q7mbzzx4urqwjz59pyweiba1scjp7aiemk3wctfwund7mpr4autyed4hy3/history" xlink:title="nano_33q7m">
<ellipse fill="none" stroke="black" cx="1171.96" cy="-557.55" rx="57.69" ry="18"/>
<text text-anchor="middle" x="1171.96" y="-553.85" font-family="Times New Roman,serif" font-size="14.00">nano_33q7m</text>
</a>
</g>
</g>
<!-- nano_1afxwzsdmti5we4xkxkxikuodegahnyi3ijio64aafduecm5kq9axwbxtkxx&#45;&gt;nano_33q7mbzzx4urqwjz59pyweiba1scjp7aiemk3wctfwund7mpr4autyed4hy3 -->
<g id="edge12" class="edge">
<title>nano_1afxwzsdmti5we4xkxkxikuodegahnyi3ijio64aafduecm5kq9axwbxtkxx&#45;&gt;nano_33q7mbzzx4urqwjz59pyweiba1scjp7aiemk3wctfwund7mpr4autyed4hy3</title>
<path fill="none" stroke="black" d="M752.21,-525.98C828.94,-528.37 973.52,-534.17 1096.12,-546.55 1100.58,-547 1105.18,-547.52 1109.8,-548.09"/>
<polygon fill="black" stroke="black" points="1109.54,-551.59 1119.91,-549.41 1110.45,-544.65 1109.54,-551.59"/>
<text text-anchor="middle" x="905.24" y="-539.35" font-family="Times New Roman,serif" font-size="14.00">1.05</text>
</g>
<!-- nano_1urt4m979igp1bfrnrajswarfscj7aw5gdsy7jkzgbhmob5zcayjq5hqwe9e&#45;&gt;nano_1yn4ips8wry57sfj4hnkgodyrpu67bgpeassmrne46sg9uhr6obnmkgxyr9q -->
<g id="edge9" class="edge">
<title>nano_1urt4m979igp1bfrnrajswarfscj7aw5gdsy7jkzgbhmob5zcayjq5hqwe9e&#45;&gt;nano_1yn4ips8wry57sfj4hnkgodyrpu67bgpeassmrne46sg9uhr6obnmkgxyr9q</title>
<path fill="none" stroke="black" d="M948.74,-597.5C959.44,-599.59 970.96,-601.49 981.73,-602.55 1032.33,-607.52 1045.39,-605.94 1096.12,-602.55 1277.75,-590.37 1344.56,-593.15 1486.79,-479.55 1550.91,-428.33 1584.81,-332.79 1598.31,-285.51"/>
<polygon fill="black" stroke="black" points="1601.75,-286.23 1601.03,-275.66 1595,-284.37 1601.75,-286.23"/>
<text text-anchor="middle" x="1303.7" y="-593.35" font-family="Times New Roman,serif" font-size="14.00">19.474999</text>
</g>
<!-- nano_1urt4m979igp1bfrnrajswarfscj7aw5gdsy7jkzgbhmob5zcayjq5hqwe9e&#45;&gt;nano_33q7mbzzx4urqwjz59pyweiba1scjp7aiemk3wctfwund7mpr4autyed4hy3 -->
<g id="edge10" class="edge">
<title>nano_1urt4m979igp1bfrnrajswarfscj7aw5gdsy7jkzgbhmob5zcayjq5hqwe9e&#45;&gt;nano_33q7mbzzx4urqwjz59pyweiba1scjp7aiemk3wctfwund7mpr4autyed4hy3</title>
<path fill="none" stroke="black" d="M936.35,-573.1C949.89,-567.37 966.28,-561.45 981.73,-558.55 1022.6,-550.85 1069.33,-550.52 1106.12,-552.16"/>
<polygon fill="black" stroke="black" points="1106.06,-555.66 1116.23,-552.67 1106.41,-548.67 1106.06,-555.66"/>
<text text-anchor="middle" x="1038.93" y="-562.35" font-family="Times New Roman,serif" font-size="14.00">2.619999</text>
</g>
<!-- nano_3oqahrgqmb51j6tap96x3yhphrguy8a597ugm5t91g73tgnkfmdh6dbuyx5d -->
<g id="node12" class="node">
<title>nano_3oqahrgqmb51j6tap96x3yhphrguy8a597ugm5t91g73tgnkfmdh6dbuyx5d</title>
<g id="a_node12"><a xlink:href="https://nanocrawler.cc/explorer/account/nano_3oqahrgqmb51j6tap96x3yhphrguy8a597ugm5t91g73tgnkfmdh6dbuyx5d/history" xlink:title="nano_3oqah">
<ellipse fill="none" stroke="black" cx="905.24" cy="-96.55" rx="55.79" ry="18"/>
<text text-anchor="middle" x="905.24" y="-92.85" font-family="Times New Roman,serif" font-size="14.00">nano_3oqah</text>
</a>
</g>
</g>
<!-- nano_1jdtpk7p76exs17m5pkjub9zku4dmek6dzmoqtbiub5iahkggoj9uhna1xcb&#45;&gt;nano_3oqahrgqmb51j6tap96x3yhphrguy8a597ugm5t91g73tgnkfmdh6dbuyx5d -->
<g id="edge13" class="edge">
<title>nano_1jdtpk7p76exs17m5pkjub9zku4dmek6dzmoqtbiub5iahkggoj9uhna1xcb&#45;&gt;nano_3oqahrgqmb51j6tap96x3yhphrguy8a597ugm5t91g73tgnkfmdh6dbuyx5d</title>
<path fill="none" stroke="black" d="M748.18,-107.14C775.81,-105.26 810.39,-102.92 839.97,-100.91"/>
<polygon fill="black" stroke="black" points="840.46,-104.38 850.2,-100.21 839.99,-97.4 840.46,-104.38"/>
<text text-anchor="middle" x="802.74" y="-109.35" font-family="Times New Roman,serif" font-size="14.00">2.045</text>
</g>
<!-- nano_131ubrcdie57twu41y4nh8sa4t1gqhjcedkcaaks4q4aut85nwn65wj6qifo -->
<g id="node18" class="node">
<title>nano_131ubrcdie57twu41y4nh8sa4t1gqhjcedkcaaks4q4aut85nwn65wj6qifo</title>
<g id="a_node18"><a xlink:href="https://nanocrawler.cc/explorer/account/nano_131ubrcdie57twu41y4nh8sa4t1gqhjcedkcaaks4q4aut85nwn65wj6qifo/history" xlink:title="nano_131ub">
<ellipse fill="none" stroke="black" cx="1303.7" cy="-165.55" rx="55.79" ry="18"/>
<text text-anchor="middle" x="1303.7" y="-161.85" font-family="Times New Roman,serif" font-size="14.00">nano_131ub</text>
</a>
</g>
</g>
<!-- nano_3r3maaoa4a15rxy587gg9minmayyfb3b5r6ynhywgtdey6pjkyn1tb3c7r4x&#45;&gt;nano_131ubrcdie57twu41y4nh8sa4t1gqhjcedkcaaks4q4aut85nwn65wj6qifo -->
<g id="edge19" class="edge">
<title>nano_3r3maaoa4a15rxy587gg9minmayyfb3b5r6ynhywgtdey6pjkyn1tb3c7r4x&#45;&gt;nano_131ubrcdie57twu41y4nh8sa4t1gqhjcedkcaaks4q4aut85nwn65wj6qifo</title>
<path fill="none" stroke="black" d="M752.99,-173.73C864.74,-172.06 1117.86,-168.3 1237.6,-166.51"/>
<polygon fill="black" stroke="black" points="1237.78,-170.01 1247.72,-166.36 1237.67,-163.01 1237.78,-170.01"/>
<text text-anchor="middle" x="905.24" y="-175.35" font-family="Times New Roman,serif" font-size="14.00">2.235</text>
</g>
<!-- nano_1apfegh11y4juznrgpbz6dqrw8bpheoiw336s1asf818m5joc7r69iuou7s6 -->
<g id="node16" class="node">
<title>nano_1apfegh11y4juznrgpbz6dqrw8bpheoiw336s1asf818m5joc7r69iuou7s6</title>
<g id="a_node16"><a xlink:href="https://nanocrawler.cc/explorer/account/nano_1apfegh11y4juznrgpbz6dqrw8bpheoiw336s1asf818m5joc7r69iuou7s6/history" xlink:title="nano_1apfe">
<ellipse fill="none" stroke="black" cx="1432.19" cy="-170.55" rx="53.09" ry="18"/>
<text text-anchor="middle" x="1432.19" y="-166.85" font-family="Times New Roman,serif" font-size="14.00">nano_1apfe</text>
</a>
</g>
</g>
<!-- nano_1qqekerd1dand9j78ec6rsrhrac6rptiuwei86eh3fkdmw9r5khtwdtgfd4w&#45;&gt;nano_1apfegh11y4juznrgpbz6dqrw8bpheoiw336s1asf818m5joc7r69iuou7s6 -->
<g id="edge17" class="edge">
<title>nano_1qqekerd1dand9j78ec6rsrhrac6rptiuwei86eh3fkdmw9r5khtwdtgfd4w&#45;&gt;nano_1apfegh11y4juznrgpbz6dqrw8bpheoiw336s1asf818m5joc7r69iuou7s6</title>
<path fill="none" stroke="black" d="M1225.13,-210.64C1262.72,-205.99 1314.53,-198.75 1359.6,-189.55 1366.62,-188.11 1373.97,-186.4 1381.18,-184.61"/>
<polygon fill="black" stroke="black" points="1382.06,-187.99 1390.87,-182.12 1380.32,-181.21 1382.06,-187.99"/>
<text text-anchor="middle" x="1303.7" y="-211.35" font-family="Times New Roman,serif" font-size="14.00">2.2</text>
</g>
<!-- nano_33tgqesgpm819xhgynbnq7jzk95tkkfpqkt9m1meuzbaeejy8u98w33xpgdk -->
<g id="node17" class="node">
<title>nano_33tgqesgpm819xhgynbnq7jzk95tkkfpqkt9m1meuzbaeejy8u98w33xpgdk</title>
<g id="a_node17"><a xlink:href="https://nanocrawler.cc/explorer/account/nano_33tgqesgpm819xhgynbnq7jzk95tkkfpqkt9m1meuzbaeejy8u98w33xpgdk/history" xlink:title="nano_33tgq">
<ellipse fill="none" stroke="black" cx="1432.19" cy="-257.55" rx="53.89" ry="18"/>
<text text-anchor="middle" x="1432.19" y="-253.85" font-family="Times New Roman,serif" font-size="14.00">nano_33tgq</text>
</a>
</g>
</g>
<!-- nano_1qqekerd1dand9j78ec6rsrhrac6rptiuwei86eh3fkdmw9r5khtwdtgfd4w&#45;&gt;nano_33tgqesgpm819xhgynbnq7jzk95tkkfpqkt9m1meuzbaeejy8u98w33xpgdk -->
<g id="edge18" class="edge">
<title>nano_1qqekerd1dand9j78ec6rsrhrac6rptiuwei86eh3fkdmw9r5khtwdtgfd4w&#45;&gt;nano_33tgqesgpm819xhgynbnq7jzk95tkkfpqkt9m1meuzbaeejy8u98w33xpgdk</title>
<path fill="none" stroke="black" d="M1220.43,-225.71C1229.51,-227.38 1238.94,-229.06 1247.81,-230.55 1289.12,-237.45 1335.83,-244.31 1371.77,-249.39"/>
<polygon fill="black" stroke="black" points="1371.69,-252.91 1382.08,-250.84 1372.66,-245.98 1371.69,-252.91"/>
<text text-anchor="middle" x="1303.7" y="-250.35" font-family="Times New Roman,serif" font-size="14.00">5.55</text>
</g>
<!-- nano_3jwrszth46rk1mu7rmb4rhm54us8yg1gw3ipodftqtikf5yqdyr7471nsg1k -->
<g id="node19" class="node">
<title>nano_3jwrszth46rk1mu7rmb4rhm54us8yg1gw3ipodftqtikf5yqdyr7471nsg1k</title>
<g id="a_node19"><a xlink:href="https://nanocrawler.cc/explorer/account/nano_3jwrszth46rk1mu7rmb4rhm54us8yg1gw3ipodftqtikf5yqdyr7471nsg1k/history" xlink:title="nano_3jwrs">
<ellipse fill="none" stroke="black" cx="1812.73" cy="-257.55" rx="52.79" ry="18"/>
<text text-anchor="middle" x="1812.73" y="-253.85" font-family="Times New Roman,serif" font-size="14.00">nano_3jwrs</text>
</a>
</g>
</g>
<!-- nano_1yn4ips8wry57sfj4hnkgodyrpu67bgpeassmrne46sg9uhr6obnmkgxyr9q&#45;&gt;nano_3jwrszth46rk1mu7rmb4rhm54us8yg1gw3ipodftqtikf5yqdyr7471nsg1k -->
<g id="edge25" class="edge">
<title>nano_1yn4ips8wry57sfj4hnkgodyrpu67bgpeassmrne46sg9uhr6obnmkgxyr9q&#45;&gt;nano_3jwrszth46rk1mu7rmb4rhm54us8yg1gw3ipodftqtikf5yqdyr7471nsg1k</title>
<path fill="none" stroke="black" d="M1659.25,-257.55C1686.85,-257.55 1720.98,-257.55 1749.95,-257.55"/>
<polygon fill="black" stroke="black" points="1749.97,-261.05 1759.97,-257.55 1749.97,-254.05 1749.97,-261.05"/>
<text text-anchor="middle" x="1709.58" y="-261.35" font-family="Times New Roman,serif" font-size="14.00">549.014000</text>
</g>
<!-- nano_33q7mbzzx4urqwjz59pyweiba1scjp7aiemk3wctfwund7mpr4autyed4hy3&#45;&gt;nano_1urt4m979igp1bfrnrajswarfscj7aw5gdsy7jkzgbhmob5zcayjq5hqwe9e -->
<g id="edge34" class="edge">
<title>nano_33q7mbzzx4urqwjz59pyweiba1scjp7aiemk3wctfwund7mpr4autyed4hy3&#45;&gt;nano_1urt4m979igp1bfrnrajswarfscj7aw5gdsy7jkzgbhmob5zcayjq5hqwe9e</title>
<path fill="none" stroke="black" d="M1125.23,-568.36C1115.65,-570.33 1105.59,-572.19 1096.12,-573.55 1053.35,-579.66 1004.75,-583.18 967.43,-585.16"/>
<polygon fill="black" stroke="black" points="967.02,-581.68 957.21,-585.68 967.38,-588.67 967.02,-581.68"/>
<text text-anchor="middle" x="1038.93" y="-587.35" font-family="Times New Roman,serif" font-size="14.00">12.904999</text>
</g>
<!-- nano_1ktsbgw1n67acgrqoido86yozomnogon1khaad3mhzuqetks13w3jqbbwph6 -->
<g id="node20" class="node">
<title>nano_1ktsbgw1n67acgrqoido86yozomnogon1khaad3mhzuqetks13w3jqbbwph6</title>
<g id="a_node20"><a xlink:href="https://nanocrawler.cc/explorer/account/nano_1ktsbgw1n67acgrqoido86yozomnogon1khaad3mhzuqetks13w3jqbbwph6/history" xlink:title="nano_1ktsb">
<ellipse fill="none" stroke="black" cx="1432.19" cy="-65.55" rx="53.09" ry="18"/>
<text text-anchor="middle" x="1432.19" y="-61.85" font-family="Times New Roman,serif" font-size="14.00">nano_1ktsb</text>
</a>
</g>
</g>
<!-- nano_3oqahrgqmb51j6tap96x3yhphrguy8a597ugm5t91g73tgnkfmdh6dbuyx5d&#45;&gt;nano_1ktsbgw1n67acgrqoido86yozomnogon1khaad3mhzuqetks13w3jqbbwph6 -->
<g id="edge26" class="edge">
<title>nano_3oqahrgqmb51j6tap96x3yhphrguy8a597ugm5t91g73tgnkfmdh6dbuyx5d&#45;&gt;nano_1ktsbgw1n67acgrqoido86yozomnogon1khaad3mhzuqetks13w3jqbbwph6</title>
<path fill="none" stroke="black" d="M958.84,-101.7C1043.94,-108.74 1216.71,-117.61 1359.6,-90.55 1369.1,-88.74 1379.05,-85.92 1388.4,-82.8"/>
<polygon fill="black" stroke="black" points="1389.61,-86.09 1397.89,-79.48 1387.29,-79.48 1389.61,-86.09"/>
<text text-anchor="middle" x="1171.96" y="-113.35" font-family="Times New Roman,serif" font-size="14.00">2.045</text>
</g>
<!-- nano_1x1khayww4yyb1h8git5qns53saraifyja6h78jfspix597gdgr7ntqwgsi8 -->
<g id="node21" class="node">
<title>nano_1x1khayww4yyb1h8git5qns53saraifyja6h78jfspix597gdgr7ntqwgsi8</title>
<g id="a_node21"><a xlink:href="https://nanocrawler.cc/explorer/account/nano_1x1khayww4yyb1h8git5qns53saraifyja6h78jfspix597gdgr7ntqwgsi8/history" xlink:title="nano_1x1kh">
<ellipse fill="none" stroke="black" cx="1171.96" cy="-22.55" rx="55.49" ry="18"/>
<text text-anchor="middle" x="1171.96" y="-18.85" font-family="Times New Roman,serif" font-size="14.00">nano_1x1kh</text>
</a>
</g>
</g>
<!-- nano_3oqahrgqmb51j6tap96x3yhphrguy8a597ugm5t91g73tgnkfmdh6dbuyx5d&#45;&gt;nano_1x1khayww4yyb1h8git5qns53saraifyja6h78jfspix597gdgr7ntqwgsi8 -->
<g id="edge27" class="edge">
<title>nano_3oqahrgqmb51j6tap96x3yhphrguy8a597ugm5t91g73tgnkfmdh6dbuyx5d&#45;&gt;nano_1x1khayww4yyb1h8git5qns53saraifyja6h78jfspix597gdgr7ntqwgsi8</title>
<path fill="none" stroke="black" d="M926.67,-79.67C941.14,-68.67 961.5,-55.01 981.73,-47.55 1021.51,-32.86 1068.81,-26.61 1106.17,-24.03"/>
<polygon fill="black" stroke="black" points="1106.66,-27.51 1116.42,-23.4 1106.23,-20.52 1106.66,-27.51"/>
<text text-anchor="middle" x="1038.93" y="-51.35" font-family="Times New Roman,serif" font-size="14.00">11.4</text>
</g>
<!-- nano_1ewpuigknz9k9xug77xw8d8w1auyuas35k3y1oxbcap64rx3pdi8wzbo5o5w&#45;&gt;nano_1yn4ips8wry57sfj4hnkgodyrpu67bgpeassmrne46sg9uhr6obnmkgxyr9q -->
<g id="edge24" class="edge">
<title>nano_1ewpuigknz9k9xug77xw8d8w1auyuas35k3y1oxbcap64rx3pdi8wzbo5o5w&#45;&gt;nano_1yn4ips8wry57sfj4hnkgodyrpu67bgpeassmrne46sg9uhr6obnmkgxyr9q</title>
<path fill="none" stroke="black" d="M1079.28,-673.39C1171.68,-700.84 1404.52,-753.84 1535.79,-639.55 1589.08,-593.14 1601.8,-366.57 1604.65,-286.03"/>
<polygon fill="black" stroke="black" points="1608.16,-285.77 1604.99,-275.66 1601.17,-285.54 1608.16,-285.77"/>
<text text-anchor="middle" x="1303.7" y="-713.35" font-family="Times New Roman,serif" font-size="14.00">6.000001</text>
</g>
<!-- nano_37h1aqpeesn5xap4mjjjj9gnmdkyptn8mmmb1xhx8m6176h8emaeps5wq67q&#45;&gt;nano_1z7oxugm9ce8xpt1wh4i5zp47mpfjbneimewmpdo1w6mups88adkmggby1q9 -->
<g id="edge33" class="edge">
<title>nano_37h1aqpeesn5xap4mjjjj9gnmdkyptn8mmmb1xhx8m6176h8emaeps5wq67q&#45;&gt;nano_1z7oxugm9ce8xpt1wh4i5zp47mpfjbneimewmpdo1w6mups88adkmggby1q9</title>
<path fill="none" stroke="black" d="M1379.2,-393.05C1372.6,-392.52 1365.94,-392 1359.6,-391.55 1140.4,-375.74 880.03,-361.25 761.92,-354.92"/>
<polygon fill="black" stroke="black" points="761.8,-351.4 751.62,-354.36 761.42,-358.39 761.8,-351.4"/>
<text text-anchor="middle" x="1038.93" y="-377.35" font-family="Times New Roman,serif" font-size="14.00">15.795</text>
</g>
<!-- nano_3gmobrncois7fe1pn9ue5niqtbsw6jp68oscfxuqptymjs7ebi6fz8sjq1ou&#45;&gt;nano_37h1aqpeesn5xap4mjjjj9gnmdkyptn8mmmb1xhx8m6176h8emaeps5wq67q -->
<g id="edge31" class="edge">
<title>nano_3gmobrncois7fe1pn9ue5niqtbsw6jp68oscfxuqptymjs7ebi6fz8sjq1ou&#45;&gt;nano_37h1aqpeesn5xap4mjjjj9gnmdkyptn8mmmb1xhx8m6176h8emaeps5wq67q</title>
<path fill="none" stroke="black" d="M957.31,-410.24C965.46,-409.16 973.81,-408.21 981.73,-407.55 1118.83,-396.08 1280.23,-395.66 1367.46,-396.51"/>
<polygon fill="black" stroke="black" points="1367.43,-400.01 1377.46,-396.62 1367.5,-393.01 1367.43,-400.01"/>
<text text-anchor="middle" x="1171.96" y="-403.35" font-family="Times New Roman,serif" font-size="14.00">1.02</text>
</g>
<!-- nano_31tmowcaa9r7wj91646tn89x3358g1sts4xpkbudwihzf6w6za1azu37mybe -->
<g id="node22" class="node">
<title>nano_31tmowcaa9r7wj91646tn89x3358g1sts4xpkbudwihzf6w6za1azu37mybe</title>
<g id="a_node22"><a xlink:href="https://nanocrawler.cc/explorer/account/nano_31tmowcaa9r7wj91646tn89x3358g1sts4xpkbudwihzf6w6za1azu37mybe/history" xlink:title="nano_31tmo">
<ellipse fill="none" stroke="black" cx="1171.96" cy="-448.55" rx="55.79" ry="18"/>
<text text-anchor="middle" x="1171.96" y="-444.85" font-family="Times New Roman,serif" font-size="14.00">nano_31tmo</text>
</a>
</g>
</g>
<!-- nano_3gmobrncois7fe1pn9ue5niqtbsw6jp68oscfxuqptymjs7ebi6fz8sjq1ou&#45;&gt;nano_31tmowcaa9r7wj91646tn89x3358g1sts4xpkbudwihzf6w6za1azu37mybe -->
<g id="edge32" class="edge">
<title>nano_3gmobrncois7fe1pn9ue5niqtbsw6jp68oscfxuqptymjs7ebi6fz8sjq1ou&#45;&gt;nano_31tmowcaa9r7wj91646tn89x3358g1sts4xpkbudwihzf6w6za1azu37mybe</title>
<path fill="none" stroke="black" d="M961.58,-413.58C999.74,-411.44 1051.42,-411.07 1096.12,-419.55 1107.66,-421.73 1119.72,-425.63 1130.7,-429.86"/>
<polygon fill="black" stroke="black" points="1129.45,-433.13 1140.03,-433.64 1132.08,-426.64 1129.45,-433.13"/>
<text text-anchor="middle" x="1038.93" y="-423.35" font-family="Times New Roman,serif" font-size="14.00">12.575</text>
</g>
<!-- nano_1apfegh11y4juznrgpbz6dqrw8bpheoiw336s1asf818m5joc7r69iuou7s6&#45;&gt;nano_1yn4ips8wry57sfj4hnkgodyrpu67bgpeassmrne46sg9uhr6obnmkgxyr9q -->
<g id="edge28" class="edge">
<title>nano_1apfegh11y4juznrgpbz6dqrw8bpheoiw336s1asf818m5joc7r69iuou7s6&#45;&gt;nano_1yn4ips8wry57sfj4hnkgodyrpu67bgpeassmrne46sg9uhr6obnmkgxyr9q</title>
<path fill="none" stroke="black" d="M1462.8,-185.5C1491.69,-200.09 1535.77,-222.36 1567.28,-238.27"/>
<polygon fill="black" stroke="black" points="1565.71,-241.4 1576.21,-242.78 1568.86,-235.15 1565.71,-241.4"/>
<text text-anchor="middle" x="1520.29" y="-225.35" font-family="Times New Roman,serif" font-size="14.00">14.21</text>
</g>
<!-- nano_1apfegh11y4juznrgpbz6dqrw8bpheoiw336s1asf818m5joc7r69iuou7s6&#45;&gt;nano_1apfegh11y4juznrgpbz6dqrw8bpheoiw336s1asf818m5joc7r69iuou7s6 -->
<g id="edge29" class="edge">
<title>nano_1apfegh11y4juznrgpbz6dqrw8bpheoiw336s1asf818m5joc7r69iuou7s6&#45;&gt;nano_1apfegh11y4juznrgpbz6dqrw8bpheoiw336s1asf818m5joc7r69iuou7s6</title>
<path fill="none" stroke="black" d="M1416.48,-187.96C1413.55,-197.63 1418.79,-206.55 1432.19,-206.55 1440.57,-206.55 1445.76,-203.06 1447.76,-198.09"/>
<polygon fill="black" stroke="black" points="1451.26,-198.01 1447.91,-187.96 1444.26,-197.9 1451.26,-198.01"/>
<text text-anchor="middle" x="1432.19" y="-210.35" font-family="Times New Roman,serif" font-size="14.00">8.02</text>
</g>
<!-- nano_33tgqesgpm819xhgynbnq7jzk95tkkfpqkt9m1meuzbaeejy8u98w33xpgdk&#45;&gt;nano_1yn4ips8wry57sfj4hnkgodyrpu67bgpeassmrne46sg9uhr6obnmkgxyr9q -->
<g id="edge30" class="edge">
<title>nano_33tgqesgpm819xhgynbnq7jzk95tkkfpqkt9m1meuzbaeejy8u98w33xpgdk&#45;&gt;nano_1yn4ips8wry57sfj4hnkgodyrpu67bgpeassmrne46sg9uhr6obnmkgxyr9q</title>
<path fill="none" stroke="black" d="M1486.28,-257.55C1504.38,-257.55 1524.77,-257.55 1543.5,-257.55"/>
<polygon fill="black" stroke="black" points="1543.71,-261.05 1553.71,-257.55 1543.71,-254.05 1543.71,-261.05"/>
<text text-anchor="middle" x="1520.29" y="-261.35" font-family="Times New Roman,serif" font-size="14.00">15.07</text>
</g>
<!-- nano_131ubrcdie57twu41y4nh8sa4t1gqhjcedkcaaks4q4aut85nwn65wj6qifo&#45;&gt;nano_1yn4ips8wry57sfj4hnkgodyrpu67bgpeassmrne46sg9uhr6obnmkgxyr9q -->
<g id="edge23" class="edge">
<title>nano_131ubrcdie57twu41y4nh8sa4t1gqhjcedkcaaks4q4aut85nwn65wj6qifo&#45;&gt;nano_1yn4ips8wry57sfj4hnkgodyrpu67bgpeassmrne46sg9uhr6obnmkgxyr9q</title>
<path fill="none" stroke="black" d="M1339.52,-151.66C1346.31,-148.59 1353.28,-145.16 1359.6,-141.55 1368.17,-136.65 1368.21,-131.58 1377.6,-128.55 1423.77,-113.61 1442.35,-109.04 1486.79,-128.55 1534.21,-149.36 1571.02,-199.52 1590.37,-230.8"/>
<polygon fill="black" stroke="black" points="1587.43,-232.7 1595.58,-239.47 1593.42,-229.09 1587.43,-232.7"/>
<text text-anchor="middle" x="1432.19" y="-132.35" font-family="Times New Roman,serif" font-size="14.00">4.255</text>
</g>
<!-- nano_1ktsbgw1n67acgrqoido86yozomnogon1khaad3mhzuqetks13w3jqbbwph6&#45;&gt;nano_1yn4ips8wry57sfj4hnkgodyrpu67bgpeassmrne46sg9uhr6obnmkgxyr9q -->
<g id="edge38" class="edge">
<title>nano_1ktsbgw1n67acgrqoido86yozomnogon1khaad3mhzuqetks13w3jqbbwph6&#45;&gt;nano_1yn4ips8wry57sfj4hnkgodyrpu67bgpeassmrne46sg9uhr6obnmkgxyr9q</title>
<path fill="none" stroke="black" d="M1484.74,-68.66C1502.59,-72.02 1521.65,-78.45 1535.79,-90.55 1577.73,-126.4 1594.91,-191.68 1601.56,-229.12"/>
<polygon fill="black" stroke="black" points="1598.16,-230.04 1603.23,-239.34 1605.07,-228.91 1598.16,-230.04"/>
<text text-anchor="middle" x="1520.29" y="-94.35" font-family="Times New Roman,serif" font-size="14.00">6.765</text>
</g>
<!-- nano_1ktsbgw1n67acgrqoido86yozomnogon1khaad3mhzuqetks13w3jqbbwph6&#45;&gt;nano_3oqahrgqmb51j6tap96x3yhphrguy8a597ugm5t91g73tgnkfmdh6dbuyx5d -->
<g id="edge39" class="edge">
<title>nano_1ktsbgw1n67acgrqoido86yozomnogon1khaad3mhzuqetks13w3jqbbwph6&#45;&gt;nano_3oqahrgqmb51j6tap96x3yhphrguy8a597ugm5t91g73tgnkfmdh6dbuyx5d</title>
<path fill="none" stroke="black" d="M1379.62,-68.59C1283.23,-74.28 1076,-86.52 970.62,-92.74"/>
<polygon fill="black" stroke="black" points="970.21,-89.26 960.44,-93.34 970.63,-96.25 970.21,-89.26"/>
<text text-anchor="middle" x="1171.96" y="-88.35" font-family="Times New Roman,serif" font-size="14.00">3.27</text>
</g>
<!-- nano_1x1khayww4yyb1h8git5qns53saraifyja6h78jfspix597gdgr7ntqwgsi8&#45;&gt;nano_1yn4ips8wry57sfj4hnkgodyrpu67bgpeassmrne46sg9uhr6obnmkgxyr9q -->
<g id="edge41" class="edge">
<title>nano_1x1khayww4yyb1h8git5qns53saraifyja6h78jfspix597gdgr7ntqwgsi8&#45;&gt;nano_1yn4ips8wry57sfj4hnkgodyrpu67bgpeassmrne46sg9uhr6obnmkgxyr9q</title>
<path fill="none" stroke="black" d="M1218.1,-12.55C1280.93,-0.85 1397.12,12.67 1486.79,-23.55 1568.95,-56.73 1594.75,-174.6 1602.41,-229.29"/>
<polygon fill="black" stroke="black" points="1598.96,-229.87 1603.71,-239.34 1605.9,-228.98 1598.96,-229.87"/>
<text text-anchor="middle" x="1432.19" y="-27.35" font-family="Times New Roman,serif" font-size="14.00">11.4</text>
</g>
<!-- nano_1x1khayww4yyb1h8git5qns53saraifyja6h78jfspix597gdgr7ntqwgsi8&#45;&gt;nano_1ktsbgw1n67acgrqoido86yozomnogon1khaad3mhzuqetks13w3jqbbwph6 -->
<g id="edge40" class="edge">
<title>nano_1x1khayww4yyb1h8git5qns53saraifyja6h78jfspix597gdgr7ntqwgsi8&#45;&gt;nano_1ktsbgw1n67acgrqoido86yozomnogon1khaad3mhzuqetks13w3jqbbwph6</title>
<path fill="none" stroke="black" d="M1225.11,-27.93C1262.68,-32.2 1314.49,-38.88 1359.6,-47.55 1366.28,-48.83 1373.27,-50.35 1380.15,-51.96"/>
<polygon fill="black" stroke="black" points="1379.56,-55.42 1390.11,-54.37 1381.21,-48.62 1379.56,-55.42"/>
<text text-anchor="middle" x="1303.7" y="-51.35" font-family="Times New Roman,serif" font-size="14.00">1</text>
</g>
<!-- nano_31tmowcaa9r7wj91646tn89x3358g1sts4xpkbudwihzf6w6za1azu37mybe&#45;&gt;nano_1yn4ips8wry57sfj4hnkgodyrpu67bgpeassmrne46sg9uhr6obnmkgxyr9q -->
<g id="edge36" class="edge">
<title>nano_31tmowcaa9r7wj91646tn89x3358g1sts4xpkbudwihzf6w6za1azu37mybe&#45;&gt;nano_1yn4ips8wry57sfj4hnkgodyrpu67bgpeassmrne46sg9uhr6obnmkgxyr9q</title>
<path fill="none" stroke="black" d="M1220.24,-457.74C1285.59,-467.79 1404.73,-476.24 1486.79,-424.55 1540.52,-390.7 1577.01,-322.83 1594.18,-284.86"/>
<polygon fill="black" stroke="black" points="1597.5,-286.01 1598.32,-275.44 1591.09,-283.19 1597.5,-286.01"/>
<text text-anchor="middle" x="1432.19" y="-464.35" font-family="Times New Roman,serif" font-size="14.00">14.710</text>
</g>
<!-- nano_31tmowcaa9r7wj91646tn89x3358g1sts4xpkbudwihzf6w6za1azu37mybe&#45;&gt;nano_37h1aqpeesn5xap4mjjjj9gnmdkyptn8mmmb1xhx8m6176h8emaeps5wq67q -->
<g id="edge35" class="edge">
<title>nano_31tmowcaa9r7wj91646tn89x3358g1sts4xpkbudwihzf6w6za1azu37mybe&#45;&gt;nano_37h1aqpeesn5xap4mjjjj9gnmdkyptn8mmmb1xhx8m6176h8emaeps5wq67q</title>
<path fill="none" stroke="black" d="M1217.62,-438.09C1227.55,-435.86 1238.02,-433.56 1247.81,-431.55 1289.84,-422.88 1337.51,-414.07 1373.71,-407.59"/>
<polygon fill="black" stroke="black" points="1374.37,-411.03 1383.6,-405.83 1373.14,-404.14 1374.37,-411.03"/>
<text text-anchor="middle" x="1303.7" y="-435.35" font-family="Times New Roman,serif" font-size="14.00">2.53</text>
</g>
<!-- nano_31tmowcaa9r7wj91646tn89x3358g1sts4xpkbudwihzf6w6za1azu37mybe&#45;&gt;nano_3gmobrncois7fe1pn9ue5niqtbsw6jp68oscfxuqptymjs7ebi6fz8sjq1ou -->
<g id="edge37" class="edge">
<title>nano_31tmowcaa9r7wj91646tn89x3358g1sts4xpkbudwihzf6w6za1azu37mybe&#45;&gt;nano_3gmobrncois7fe1pn9ue5niqtbsw6jp68oscfxuqptymjs7ebi6fz8sjq1ou</title>
<path fill="none" stroke="black" d="M1116.1,-446.45C1078.21,-444.52 1026.74,-440.95 981.73,-434.55 975.46,-433.65 968.94,-432.55 962.46,-431.33"/>
<polygon fill="black" stroke="black" points="962.86,-427.84 952.37,-429.35 961.51,-434.71 962.86,-427.84"/>
<text text-anchor="middle" x="1038.93" y="-448.35" font-family="Times New Roman,serif" font-size="14.00">2.08</text>
</g>
</g>
</svg>
