<?xml version="1.0" encoding="UTF-8" standalone="no"?>
<!DOCTYPE svg PUBLIC "-//W3C//DTD SVG 1.1//EN"
 "http://www.w3.org/Graphics/SVG/1.1/DTD/svg11.dtd">
<!-- Generated by graphviz version 2.46.1 (20210213.1702)
 -->
<!-- Pages: 1 -->
<svg width="1869pt" height="729pt"
 viewBox="0.00 0.00 1869.37 728.75" xmlns="http://www.w3.org/2000/svg" xmlns:xlink="http://www.w3.org/1999/xlink">
<g id="graph0" class="graph" transform="scale(1 1) rotate(0) translate(4 724.75)">
<polygon fill="white" stroke="transparent" points="-4,4 -4,-724.75 1865.37,-724.75 1865.37,4 -4,4"/>
<!-- nano_3qt7yt39jnzq516npbiicqy4oijoez3icpgbfbqxeayfgazyzrnk8qd4bdtf -->
<g id="node1" class="node">
<title>nano_3qt7yt39jnzq516npbiicqy4oijoez3icpgbfbqxeayfgazyzrnk8qd4bdtf</title>
<g id="a_node1"><a xlink:href="https://nanocrawler.cc/explorer/account/nano_3qt7yt39jnzq516npbiicqy4oijoez3icpgbfbqxeayfgazyzrnk8qd4bdtf/history" xlink:title="nano_3qt7yt39jnzq516npbiicqy4oijoez3icpgbfbqxeayfgazyzrnk8qd4bdtf">
<ellipse fill="none" stroke="black" cx="273.63" cy="-409.75" rx="273.75" ry="18"/>
<text text-anchor="middle" x="273.63" y="-406.05" font-family="Times New Roman,serif" font-size="14.00">nano_3qt7yt39jnzq516npbiicqy4oijoez3icpgbfbqxeayfgazyzrnk8qd4bdtf</text>
</a>
</g>
</g>
<!-- nano_1mzmwktsuayytipudnh6g53whsjzr8oiajbyom8krdrtm59dueixjepjf5fn -->
<g id="node2" class="node">
<title>nano_1mzmwktsuayytipudnh6g53whsjzr8oiajbyom8krdrtm59dueixjepjf5fn</title>
<g id="a_node2"><a xlink:href="https://nanocrawler.cc/explorer/account/nano_1mzmwktsuayytipudnh6g53whsjzr8oiajbyom8krdrtm59dueixjepjf5fn/history" xlink:title="nano_1mzmw">
<ellipse fill="none" stroke="black" cx="707" cy="-675.75" rx="61.99" ry="18"/>
<text text-anchor="middle" x="707" y="-672.05" font-family="Times New Roman,serif" font-size="14.00">nano_1mzmw</text>
</a>
</g>
</g>
<!-- nano_3qt7yt39jnzq516npbiicqy4oijoez3icpgbfbqxeayfgazyzrnk8qd4bdtf&#45;&gt;nano_1mzmwktsuayytipudnh6g53whsjzr8oiajbyom8krdrtm59dueixjepjf5fn -->
<g id="edge1" class="edge">
<title>nano_3qt7yt39jnzq516npbiicqy4oijoez3icpgbfbqxeayfgazyzrnk8qd4bdtf&#45;&gt;nano_1mzmwktsuayytipudnh6g53whsjzr8oiajbyom8krdrtm59dueixjepjf5fn</title>
<path fill="none" stroke="black" d="M294.34,-427.74C339.34,-468.02 454.33,-566.55 565.25,-625.75 592.45,-640.27 624.75,-652.09 651.53,-660.58"/>
<polygon fill="black" stroke="black" points="650.55,-663.94 661.14,-663.56 652.62,-657.25 650.55,-663.94"/>
<text text-anchor="middle" x="596.25" y="-654.55" font-family="Times New Roman,serif" font-size="14.00">2.000001/1</text>
</g>
<!-- nano_1z7oxugm9ce8xpt1wh4i5zp47mpfjbneimewmpdo1w6mups88adkmggby1q9 -->
<g id="node3" class="node">
<title>nano_1z7oxugm9ce8xpt1wh4i5zp47mpfjbneimewmpdo1w6mups88adkmggby1q9</title>
<g id="a_node3"><a xlink:href="https://nanocrawler.cc/explorer/account/nano_1z7oxugm9ce8xpt1wh4i5zp47mpfjbneimewmpdo1w6mups88adkmggby1q9/history" xlink:title="nano_1z7ox">
<ellipse fill="none" stroke="black" cx="707" cy="-375.75" rx="55.49" ry="18"/>
<text text-anchor="middle" x="707" y="-372.05" font-family="Times New Roman,serif" font-size="14.00">nano_1z7ox</text>
</a>
</g>
</g>
<!-- nano_3qt7yt39jnzq516npbiicqy4oijoez3icpgbfbqxeayfgazyzrnk8qd4bdtf&#45;&gt;nano_1z7oxugm9ce8xpt1wh4i5zp47mpfjbneimewmpdo1w6mups88adkmggby1q9 -->
<g id="edge2" class="edge">
<title>nano_3qt7yt39jnzq516npbiicqy4oijoez3icpgbfbqxeayfgazyzrnk8qd4bdtf&#45;&gt;nano_1z7oxugm9ce8xpt1wh4i5zp47mpfjbneimewmpdo1w6mups88adkmggby1q9</title>
<path fill="none" stroke="black" d="M449.77,-395.95C518.12,-390.56 592.1,-384.73 642.91,-380.73"/>
<polygon fill="black" stroke="black" points="643.38,-384.2 653.07,-379.92 642.83,-377.22 643.38,-384.2"/>
<text text-anchor="middle" x="596.25" y="-389.55" font-family="Times New Roman,serif" font-size="14.00">1.02/1</text>
</g>
<!-- nano_1ijmp98wncewk48ak87rhkwwej3fissfe4anjnnxk7ifernrnp3wxryqop81 -->
<g id="node4" class="node">
<title>nano_1ijmp98wncewk48ak87rhkwwej3fissfe4anjnnxk7ifernrnp3wxryqop81</title>
<g id="a_node4"><a xlink:href="https://nanocrawler.cc/explorer/account/nano_1ijmp98wncewk48ak87rhkwwej3fissfe4anjnnxk7ifernrnp3wxryqop81/history" xlink:title="nano_1ijmp">
<ellipse fill="none" stroke="black" cx="707" cy="-446.75" rx="53.09" ry="18"/>
<text text-anchor="middle" x="707" y="-443.05" font-family="Times New Roman,serif" font-size="14.00">nano_1ijmp</text>
</a>
</g>
</g>
<!-- nano_3qt7yt39jnzq516npbiicqy4oijoez3icpgbfbqxeayfgazyzrnk8qd4bdtf&#45;&gt;nano_1ijmp98wncewk48ak87rhkwwej3fissfe4anjnnxk7ifernrnp3wxryqop81 -->
<g id="edge3" class="edge">
<title>nano_3qt7yt39jnzq516npbiicqy4oijoez3icpgbfbqxeayfgazyzrnk8qd4bdtf&#45;&gt;nano_1ijmp98wncewk48ak87rhkwwej3fissfe4anjnnxk7ifernrnp3wxryqop81</title>
<path fill="none" stroke="black" d="M440.79,-424.01C512.44,-430.15 591.79,-436.96 644.86,-441.51"/>
<polygon fill="black" stroke="black" points="644.85,-445.02 655.11,-442.39 645.45,-438.05 644.85,-445.02"/>
<text text-anchor="middle" x="596.25" y="-442.55" font-family="Times New Roman,serif" font-size="14.00">1.01/1</text>
</g>
<!-- nano_1afxwzsdmti5we4xkxkxikuodegahnyi3ijio64aafduecm5kq9axwbxtkxx -->
<g id="node5" class="node">
<title>nano_1afxwzsdmti5we4xkxkxikuodegahnyi3ijio64aafduecm5kq9axwbxtkxx</title>
<g id="a_node5"><a xlink:href="https://nanocrawler.cc/explorer/account/nano_1afxwzsdmti5we4xkxkxikuodegahnyi3ijio64aafduecm5kq9axwbxtkxx/history" xlink:title="nano_1afxw">
<ellipse fill="none" stroke="black" cx="707" cy="-548.75" rx="55.49" ry="18"/>
<text text-anchor="middle" x="707" y="-545.05" font-family="Times New Roman,serif" font-size="14.00">nano_1afxw</text>
</a>
</g>
</g>
<!-- nano_3qt7yt39jnzq516npbiicqy4oijoez3icpgbfbqxeayfgazyzrnk8qd4bdtf&#45;&gt;nano_1afxwzsdmti5we4xkxkxikuodegahnyi3ijio64aafduecm5kq9axwbxtkxx -->
<g id="edge4" class="edge">
<title>nano_3qt7yt39jnzq516npbiicqy4oijoez3icpgbfbqxeayfgazyzrnk8qd4bdtf&#45;&gt;nano_1afxwzsdmti5we4xkxkxikuodegahnyi3ijio64aafduecm5kq9axwbxtkxx</title>
<path fill="none" stroke="black" d="M329.7,-427.5C414.65,-454.87 576.28,-506.96 657.24,-533.04"/>
<polygon fill="black" stroke="black" points="656.58,-536.51 667.17,-536.24 658.73,-529.84 656.58,-536.51"/>
<text text-anchor="middle" x="596.25" y="-525.55" font-family="Times New Roman,serif" font-size="14.00">1.01/1</text>
</g>
<!-- nano_1urt4m979igp1bfrnrajswarfscj7aw5gdsy7jkzgbhmob5zcayjq5hqwe9e -->
<g id="node6" class="node">
<title>nano_1urt4m979igp1bfrnrajswarfscj7aw5gdsy7jkzgbhmob5zcayjq5hqwe9e</title>
<g id="a_node6"><a xlink:href="https://nanocrawler.cc/explorer/account/nano_1urt4m979igp1bfrnrajswarfscj7aw5gdsy7jkzgbhmob5zcayjq5hqwe9e/history" xlink:title="nano_1urt4">
<ellipse fill="none" stroke="black" cx="905.24" cy="-611.75" rx="51.99" ry="18"/>
<text text-anchor="middle" x="905.24" y="-608.05" font-family="Times New Roman,serif" font-size="14.00">nano_1urt4</text>
</a>
</g>
</g>
<!-- nano_3qt7yt39jnzq516npbiicqy4oijoez3icpgbfbqxeayfgazyzrnk8qd4bdtf&#45;&gt;nano_1urt4m979igp1bfrnrajswarfscj7aw5gdsy7jkzgbhmob5zcayjq5hqwe9e -->
<g id="edge5" class="edge">
<title>nano_3qt7yt39jnzq516npbiicqy4oijoez3icpgbfbqxeayfgazyzrnk8qd4bdtf&#45;&gt;nano_1urt4m979igp1bfrnrajswarfscj7aw5gdsy7jkzgbhmob5zcayjq5hqwe9e</title>
<path fill="none" stroke="black" d="M306.69,-427.79C369.55,-462.29 514.27,-537.61 645.25,-575.75 706.35,-593.54 723.69,-589.1 786.74,-597.75 805.8,-600.37 826.64,-602.95 845.41,-605.16"/>
<polygon fill="black" stroke="black" points="845.26,-608.67 855.6,-606.35 846.07,-601.71 845.26,-608.67"/>
<text text-anchor="middle" x="707" y="-598.55" font-family="Times New Roman,serif" font-size="14.00">1.034999/1</text>
</g>
<!-- nano_1jdtpk7p76exs17m5pkjub9zku4dmek6dzmoqtbiub5iahkggoj9uhna1xcb -->
<g id="node7" class="node">
<title>nano_1jdtpk7p76exs17m5pkjub9zku4dmek6dzmoqtbiub5iahkggoj9uhna1xcb</title>
<g id="a_node7"><a xlink:href="https://nanocrawler.cc/explorer/account/nano_1jdtpk7p76exs17m5pkjub9zku4dmek6dzmoqtbiub5iahkggoj9uhna1xcb/history" xlink:title="nano_1jdtp">
<ellipse fill="none" stroke="black" cx="707" cy="-136.75" rx="51.99" ry="18"/>
<text text-anchor="middle" x="707" y="-133.05" font-family="Times New Roman,serif" font-size="14.00">nano_1jdtp</text>
</a>
</g>
</g>
<!-- nano_3qt7yt39jnzq516npbiicqy4oijoez3icpgbfbqxeayfgazyzrnk8qd4bdtf&#45;&gt;nano_1jdtpk7p76exs17m5pkjub9zku4dmek6dzmoqtbiub5iahkggoj9uhna1xcb -->
<g id="edge6" class="edge">
<title>nano_3qt7yt39jnzq516npbiicqy4oijoez3icpgbfbqxeayfgazyzrnk8qd4bdtf&#45;&gt;nano_1jdtpk7p76exs17m5pkjub9zku4dmek6dzmoqtbiub5iahkggoj9uhna1xcb</title>
<path fill="none" stroke="black" d="M292.69,-391.7C336.01,-349.3 450.79,-242.42 565.25,-181.75 592.81,-167.15 625.93,-156.27 653.12,-148.87"/>
<polygon fill="black" stroke="black" points="654.07,-152.23 662.85,-146.3 652.29,-145.47 654.07,-152.23"/>
<text text-anchor="middle" x="596.25" y="-185.55" font-family="Times New Roman,serif" font-size="14.00">1.01/1</text>
</g>
<!-- nano_3r3maaoa4a15rxy587gg9minmayyfb3b5r6ynhywgtdey6pjkyn1tb3c7r4x -->
<g id="node8" class="node">
<title>nano_3r3maaoa4a15rxy587gg9minmayyfb3b5r6ynhywgtdey6pjkyn1tb3c7r4x</title>
<g id="a_node8"><a xlink:href="https://nanocrawler.cc/explorer/account/nano_3r3maaoa4a15rxy587gg9minmayyfb3b5r6ynhywgtdey6pjkyn1tb3c7r4x/history" xlink:title="nano_3r3ma">
<ellipse fill="none" stroke="black" cx="707" cy="-289.75" rx="55.79" ry="18"/>
<text text-anchor="middle" x="707" y="-286.05" font-family="Times New Roman,serif" font-size="14.00">nano_3r3ma</text>
</a>
</g>
</g>
<!-- nano_3qt7yt39jnzq516npbiicqy4oijoez3icpgbfbqxeayfgazyzrnk8qd4bdtf&#45;&gt;nano_3r3maaoa4a15rxy587gg9minmayyfb3b5r6ynhywgtdey6pjkyn1tb3c7r4x -->
<g id="edge7" class="edge">
<title>nano_3qt7yt39jnzq516npbiicqy4oijoez3icpgbfbqxeayfgazyzrnk8qd4bdtf&#45;&gt;nano_3r3maaoa4a15rxy587gg9minmayyfb3b5r6ynhywgtdey6pjkyn1tb3c7r4x</title>
<path fill="none" stroke="black" d="M337.81,-392.18C423.54,-368.33 575.08,-326.17 654.36,-304.12"/>
<polygon fill="black" stroke="black" points="655.43,-307.45 664.13,-301.4 653.56,-300.71 655.43,-307.45"/>
<text text-anchor="middle" x="596.25" y="-331.55" font-family="Times New Roman,serif" font-size="14.00">2.235/1</text>
</g>
<!-- nano_1qqekerd1dand9j78ec6rsrhrac6rptiuwei86eh3fkdmw9r5khtwdtgfd4w -->
<g id="node9" class="node">
<title>nano_1qqekerd1dand9j78ec6rsrhrac6rptiuwei86eh3fkdmw9r5khtwdtgfd4w</title>
<g id="a_node9"><a xlink:href="https://nanocrawler.cc/explorer/account/nano_1qqekerd1dand9j78ec6rsrhrac6rptiuwei86eh3fkdmw9r5khtwdtgfd4w/history" xlink:title="nano_1qqek">
<ellipse fill="none" stroke="black" cx="1169.37" cy="-202.75" rx="55.79" ry="18"/>
<text text-anchor="middle" x="1169.37" y="-199.05" font-family="Times New Roman,serif" font-size="14.00">nano_1qqek</text>
</a>
</g>
</g>
<!-- nano_3qt7yt39jnzq516npbiicqy4oijoez3icpgbfbqxeayfgazyzrnk8qd4bdtf&#45;&gt;nano_1qqekerd1dand9j78ec6rsrhrac6rptiuwei86eh3fkdmw9r5khtwdtgfd4w -->
<g id="edge8" class="edge">
<title>nano_3qt7yt39jnzq516npbiicqy4oijoez3icpgbfbqxeayfgazyzrnk8qd4bdtf&#45;&gt;nano_1qqekerd1dand9j78ec6rsrhrac6rptiuwei86eh3fkdmw9r5khtwdtgfd4w</title>
<path fill="none" stroke="black" d="M311.56,-391.88C377.17,-360.87 519.02,-297.14 645.25,-262.75 806.04,-218.96 1003.1,-207.11 1103.24,-203.92"/>
<polygon fill="black" stroke="black" points="1103.61,-207.41 1113.5,-203.61 1103.4,-200.41 1103.61,-207.41"/>
<text text-anchor="middle" x="807.74" y="-235.55" font-family="Times New Roman,serif" font-size="14.00">5.55/1</text>
</g>
<!-- nano_1ewpuigknz9k9xug77xw8d8w1auyuas35k3y1oxbcap64rx3pdi8wzbo5o5w -->
<g id="node15" class="node">
<title>nano_1ewpuigknz9k9xug77xw8d8w1auyuas35k3y1oxbcap64rx3pdi8wzbo5o5w</title>
<g id="a_node15"><a xlink:href="https://nanocrawler.cc/explorer/account/nano_1ewpuigknz9k9xug77xw8d8w1auyuas35k3y1oxbcap64rx3pdi8wzbo5o5w/history" xlink:title="nano_1ewpu">
<ellipse fill="none" stroke="black" cx="1302.4" cy="-691.75" rx="57.39" ry="18"/>
<text text-anchor="middle" x="1302.4" y="-688.05" font-family="Times New Roman,serif" font-size="14.00">nano_1ewpu</text>
</a>
</g>
</g>
<!-- nano_1mzmwktsuayytipudnh6g53whsjzr8oiajbyom8krdrtm59dueixjepjf5fn&#45;&gt;nano_1ewpuigknz9k9xug77xw8d8w1auyuas35k3y1oxbcap64rx3pdi8wzbo5o5w -->
<g id="edge14" class="edge">
<title>nano_1mzmwktsuayytipudnh6g53whsjzr8oiajbyom8krdrtm59dueixjepjf5fn&#45;&gt;nano_1ewpuigknz9k9xug77xw8d8w1auyuas35k3y1oxbcap64rx3pdi8wzbo5o5w</title>
<path fill="none" stroke="black" d="M768.71,-677.39C880.68,-680.41 1118.84,-686.83 1234.96,-689.96"/>
<polygon fill="black" stroke="black" points="1235.05,-693.47 1245.14,-690.24 1235.23,-686.47 1235.05,-693.47"/>
<text text-anchor="middle" x="905.24" y="-685.55" font-family="Times New Roman,serif" font-size="14.00">2.000001/1</text>
</g>
<!-- nano_1yn4ips8wry57sfj4hnkgodyrpu67bgpeassmrne46sg9uhr6obnmkgxyr9q -->
<g id="node11" class="node">
<title>nano_1yn4ips8wry57sfj4hnkgodyrpu67bgpeassmrne46sg9uhr6obnmkgxyr9q</title>
<g id="a_node11"><a xlink:href="https://nanocrawler.cc/explorer/account/nano_1yn4ips8wry57sfj4hnkgodyrpu67bgpeassmrne46sg9uhr6obnmkgxyr9q/history" xlink:title="nano_1yn4i">
<ellipse fill="none" stroke="black" cx="1617.44" cy="-256.75" rx="52.79" ry="18"/>
<text text-anchor="middle" x="1617.44" y="-253.05" font-family="Times New Roman,serif" font-size="14.00">nano_1yn4i</text>
</a>
</g>
</g>
<!-- nano_1z7oxugm9ce8xpt1wh4i5zp47mpfjbneimewmpdo1w6mups88adkmggby1q9&#45;&gt;nano_1yn4ips8wry57sfj4hnkgodyrpu67bgpeassmrne46sg9uhr6obnmkgxyr9q -->
<g id="edge20" class="edge">
<title>nano_1z7oxugm9ce8xpt1wh4i5zp47mpfjbneimewmpdo1w6mups88adkmggby1q9&#45;&gt;nano_1yn4ips8wry57sfj4hnkgodyrpu67bgpeassmrne46sg9uhr6obnmkgxyr9q</title>
<path fill="none" stroke="black" d="M730.89,-359.36C766.27,-335.69 837.15,-294.75 904.24,-294.75 904.24,-294.75 904.24,-294.75 1433.19,-294.75 1480.12,-294.75 1532.42,-282.66 1569.09,-272.12"/>
<polygon fill="black" stroke="black" points="1570.4,-275.38 1579,-269.2 1568.42,-268.67 1570.4,-275.38"/>
<text text-anchor="middle" x="1169.37" y="-298.55" font-family="Times New Roman,serif" font-size="14.00">15.795/1</text>
</g>
<!-- nano_37h1aqpeesn5xap4mjjjj9gnmdkyptn8mmmb1xhx8m6176h8emaeps5wq67q -->
<g id="node13" class="node">
<title>nano_37h1aqpeesn5xap4mjjjj9gnmdkyptn8mmmb1xhx8m6176h8emaeps5wq67q</title>
<g id="a_node13"><a xlink:href="https://nanocrawler.cc/explorer/account/nano_37h1aqpeesn5xap4mjjjj9gnmdkyptn8mmmb1xhx8m6176h8emaeps5wq67q/history" xlink:title="nano_37h1a">
<ellipse fill="none" stroke="black" cx="1432.19" cy="-421.75" rx="54.69" ry="18"/>
<text text-anchor="middle" x="1432.19" y="-418.05" font-family="Times New Roman,serif" font-size="14.00">nano_37h1a</text>
</a>
</g>
</g>
<!-- nano_1z7oxugm9ce8xpt1wh4i5zp47mpfjbneimewmpdo1w6mups88adkmggby1q9&#45;&gt;nano_37h1aqpeesn5xap4mjjjj9gnmdkyptn8mmmb1xhx8m6176h8emaeps5wq67q -->
<g id="edge21" class="edge">
<title>nano_1z7oxugm9ce8xpt1wh4i5zp47mpfjbneimewmpdo1w6mups88adkmggby1q9&#45;&gt;nano_37h1aqpeesn5xap4mjjjj9gnmdkyptn8mmmb1xhx8m6176h8emaeps5wq67q</title>
<path fill="none" stroke="black" d="M755.39,-366.86C765.71,-365.06 776.58,-363.26 786.74,-361.75 873.07,-349 894.62,-343.87 981.73,-338.75 1149.69,-328.88 1204.1,-297.49 1359.6,-361.75 1378.52,-369.57 1396.19,-384.27 1409.24,-397.16"/>
<polygon fill="black" stroke="black" points="1406.88,-399.75 1416.36,-404.47 1411.89,-394.87 1406.88,-399.75"/>
<text text-anchor="middle" x="1037.63" y="-342.55" font-family="Times New Roman,serif" font-size="14.00">2.055/1</text>
</g>
<!-- nano_3gmobrncois7fe1pn9ue5niqtbsw6jp68oscfxuqptymjs7ebi6fz8sjq1ou -->
<g id="node14" class="node">
<title>nano_3gmobrncois7fe1pn9ue5niqtbsw6jp68oscfxuqptymjs7ebi6fz8sjq1ou</title>
<g id="a_node14"><a xlink:href="https://nanocrawler.cc/explorer/account/nano_3gmobrncois7fe1pn9ue5niqtbsw6jp68oscfxuqptymjs7ebi6fz8sjq1ou/history" xlink:title="nano_3gmob">
<ellipse fill="none" stroke="black" cx="905.24" cy="-442.75" rx="58.49" ry="18"/>
<text text-anchor="middle" x="905.24" y="-439.05" font-family="Times New Roman,serif" font-size="14.00">nano_3gmob</text>
</a>
</g>
</g>
<!-- nano_1z7oxugm9ce8xpt1wh4i5zp47mpfjbneimewmpdo1w6mups88adkmggby1q9&#45;&gt;nano_3gmobrncois7fe1pn9ue5niqtbsw6jp68oscfxuqptymjs7ebi6fz8sjq1ou -->
<g id="edge22" class="edge">
<title>nano_1z7oxugm9ce8xpt1wh4i5zp47mpfjbneimewmpdo1w6mups88adkmggby1q9&#45;&gt;nano_3gmobrncois7fe1pn9ue5niqtbsw6jp68oscfxuqptymjs7ebi6fz8sjq1ou</title>
<path fill="none" stroke="black" d="M745.83,-388.67C777.16,-399.37 821.86,-414.63 855.8,-426.22"/>
<polygon fill="black" stroke="black" points="854.91,-429.61 865.51,-429.53 857.18,-422.99 854.91,-429.61"/>
<text text-anchor="middle" x="807.74" y="-418.55" font-family="Times New Roman,serif" font-size="14.00">2.08/1</text>
</g>
<!-- nano_1ijmp98wncewk48ak87rhkwwej3fissfe4anjnnxk7ifernrnp3wxryqop81&#45;&gt;nano_37h1aqpeesn5xap4mjjjj9gnmdkyptn8mmmb1xhx8m6176h8emaeps5wq67q -->
<g id="edge12" class="edge">
<title>nano_1ijmp98wncewk48ak87rhkwwej3fissfe4anjnnxk7ifernrnp3wxryqop81&#45;&gt;nano_37h1aqpeesn5xap4mjjjj9gnmdkyptn8mmmb1xhx8m6176h8emaeps5wq67q</title>
<path fill="none" stroke="black" d="M751.39,-456.93C840.51,-476.54 1050.61,-516.28 1227.21,-499.75 1286.83,-494.17 1310.47,-508.98 1359.6,-474.75 1372.36,-465.86 1365.89,-454.98 1377.6,-444.75 1379.6,-443.01 1381.76,-441.37 1384.01,-439.85"/>
<polygon fill="black" stroke="black" points="1386.24,-442.6 1393.1,-434.53 1382.7,-436.56 1386.24,-442.6"/>
<text text-anchor="middle" x="1037.63" y="-506.55" font-family="Times New Roman,serif" font-size="14.00">2.02/1</text>
</g>
<!-- nano_1ijmp98wncewk48ak87rhkwwej3fissfe4anjnnxk7ifernrnp3wxryqop81&#45;&gt;nano_3gmobrncois7fe1pn9ue5niqtbsw6jp68oscfxuqptymjs7ebi6fz8sjq1ou -->
<g id="edge13" class="edge">
<title>nano_1ijmp98wncewk48ak87rhkwwej3fissfe4anjnnxk7ifernrnp3wxryqop81&#45;&gt;nano_3gmobrncois7fe1pn9ue5niqtbsw6jp68oscfxuqptymjs7ebi6fz8sjq1ou</title>
<path fill="none" stroke="black" d="M760.33,-445.69C783.68,-445.21 811.49,-444.64 836.41,-444.14"/>
<polygon fill="black" stroke="black" points="836.6,-447.63 846.53,-443.93 836.46,-440.63 836.6,-447.63"/>
<text text-anchor="middle" x="807.74" y="-448.55" font-family="Times New Roman,serif" font-size="14.00">2.02/1</text>
</g>
<!-- nano_1afxwzsdmti5we4xkxkxikuodegahnyi3ijio64aafduecm5kq9axwbxtkxx&#45;&gt;nano_1urt4m979igp1bfrnrajswarfscj7aw5gdsy7jkzgbhmob5zcayjq5hqwe9e -->
<g id="edge15" class="edge">
<title>nano_1afxwzsdmti5we4xkxkxikuodegahnyi3ijio64aafduecm5kq9axwbxtkxx&#45;&gt;nano_1urt4m979igp1bfrnrajswarfscj7aw5gdsy7jkzgbhmob5zcayjq5hqwe9e</title>
<path fill="none" stroke="black" d="M750.76,-559.76C773.98,-566 803.11,-574.24 828.74,-582.75 839.35,-586.28 850.66,-590.41 861.22,-594.44"/>
<polygon fill="black" stroke="black" points="860.06,-597.75 870.65,-598.09 862.59,-591.22 860.06,-597.75"/>
<text text-anchor="middle" x="807.74" y="-586.55" font-family="Times New Roman,serif" font-size="14.00">1.01/1</text>
</g>
<!-- nano_33q7mbzzx4urqwjz59pyweiba1scjp7aiemk3wctfwund7mpr4autyed4hy3 -->
<g id="node12" class="node">
<title>nano_33q7mbzzx4urqwjz59pyweiba1scjp7aiemk3wctfwund7mpr4autyed4hy3</title>
<g id="a_node12"><a xlink:href="https://nanocrawler.cc/explorer/account/nano_33q7mbzzx4urqwjz59pyweiba1scjp7aiemk3wctfwund7mpr4autyed4hy3/history" xlink:title="nano_33q7m">
<ellipse fill="none" stroke="black" cx="1169.37" cy="-581.75" rx="57.69" ry="18"/>
<text text-anchor="middle" x="1169.37" y="-578.05" font-family="Times New Roman,serif" font-size="14.00">nano_33q7m</text>
</a>
</g>
</g>
<!-- nano_1afxwzsdmti5we4xkxkxikuodegahnyi3ijio64aafduecm5kq9axwbxtkxx&#45;&gt;nano_33q7mbzzx4urqwjz59pyweiba1scjp7aiemk3wctfwund7mpr4autyed4hy3 -->
<g id="edge16" class="edge">
<title>nano_1afxwzsdmti5we4xkxkxikuodegahnyi3ijio64aafduecm5kq9axwbxtkxx&#45;&gt;nano_33q7mbzzx4urqwjz59pyweiba1scjp7aiemk3wctfwund7mpr4autyed4hy3</title>
<path fill="none" stroke="black" d="M762.07,-550.32C836.76,-552.84 975.64,-558.75 1093.52,-570.75 1097.98,-571.21 1102.57,-571.74 1107.2,-572.31"/>
<polygon fill="black" stroke="black" points="1106.94,-575.81 1117.31,-573.63 1107.85,-568.86 1106.94,-575.81"/>
<text text-anchor="middle" x="905.24" y="-563.55" font-family="Times New Roman,serif" font-size="14.00">1.05/1</text>
</g>
<!-- nano_1urt4m979igp1bfrnrajswarfscj7aw5gdsy7jkzgbhmob5zcayjq5hqwe9e&#45;&gt;nano_1yn4ips8wry57sfj4hnkgodyrpu67bgpeassmrne46sg9uhr6obnmkgxyr9q -->
<g id="edge10" class="edge">
<title>nano_1urt4m979igp1bfrnrajswarfscj7aw5gdsy7jkzgbhmob5zcayjq5hqwe9e&#45;&gt;nano_1yn4ips8wry57sfj4hnkgodyrpu67bgpeassmrne46sg9uhr6obnmkgxyr9q</title>
<path fill="none" stroke="black" d="M948.74,-621.71C959.44,-623.8 970.96,-625.69 981.73,-626.75 1031.18,-631.62 1043.95,-630.08 1093.52,-626.75 1276.11,-614.52 1341.23,-615.67 1486.79,-504.75 1561.08,-448.14 1596.91,-336.69 1610.14,-284.7"/>
<polygon fill="black" stroke="black" points="1613.58,-285.38 1612.56,-274.83 1606.78,-283.71 1613.58,-285.38"/>
<text text-anchor="middle" x="1302.4" y="-617.55" font-family="Times New Roman,serif" font-size="14.00">19.474999/2</text>
</g>
<!-- nano_1urt4m979igp1bfrnrajswarfscj7aw5gdsy7jkzgbhmob5zcayjq5hqwe9e&#45;&gt;nano_33q7mbzzx4urqwjz59pyweiba1scjp7aiemk3wctfwund7mpr4autyed4hy3 -->
<g id="edge11" class="edge">
<title>nano_1urt4m979igp1bfrnrajswarfscj7aw5gdsy7jkzgbhmob5zcayjq5hqwe9e&#45;&gt;nano_33q7mbzzx4urqwjz59pyweiba1scjp7aiemk3wctfwund7mpr4autyed4hy3</title>
<path fill="none" stroke="black" d="M936.35,-597.31C949.89,-591.58 966.28,-585.66 981.73,-582.75 1021.58,-575.25 1067.07,-574.85 1103.16,-576.39"/>
<polygon fill="black" stroke="black" points="1103.4,-579.91 1113.56,-576.9 1103.75,-572.91 1103.4,-579.91"/>
<text text-anchor="middle" x="1037.63" y="-586.55" font-family="Times New Roman,serif" font-size="14.00">2.619999/2</text>
</g>
<!-- nano_3oqahrgqmb51j6tap96x3yhphrguy8a597ugm5t91g73tgnkfmdh6dbuyx5d -->
<g id="node10" class="node">
<title>nano_3oqahrgqmb51j6tap96x3yhphrguy8a597ugm5t91g73tgnkfmdh6dbuyx5d</title>
<g id="a_node10"><a xlink:href="https://nanocrawler.cc/explorer/account/nano_3oqahrgqmb51j6tap96x3yhphrguy8a597ugm5t91g73tgnkfmdh6dbuyx5d/history" xlink:title="nano_3oqah">
<ellipse fill="none" stroke="black" cx="905.24" cy="-107.75" rx="55.79" ry="18"/>
<text text-anchor="middle" x="905.24" y="-104.05" font-family="Times New Roman,serif" font-size="14.00">nano_3oqah</text>
</a>
</g>
</g>
<!-- nano_1jdtpk7p76exs17m5pkjub9zku4dmek6dzmoqtbiub5iahkggoj9uhna1xcb&#45;&gt;nano_3oqahrgqmb51j6tap96x3yhphrguy8a597ugm5t91g73tgnkfmdh6dbuyx5d -->
<g id="edge9" class="edge">
<title>nano_1jdtpk7p76exs17m5pkjub9zku4dmek6dzmoqtbiub5iahkggoj9uhna1xcb&#45;&gt;nano_3oqahrgqmb51j6tap96x3yhphrguy8a597ugm5t91g73tgnkfmdh6dbuyx5d</title>
<path fill="none" stroke="black" d="M755,-129.81C781.78,-125.85 815.6,-120.85 844.28,-116.61"/>
<polygon fill="black" stroke="black" points="844.8,-120.07 854.18,-115.15 843.78,-113.15 844.8,-120.07"/>
<text text-anchor="middle" x="807.74" y="-129.55" font-family="Times New Roman,serif" font-size="14.00">2.045/2</text>
</g>
<!-- nano_131ubrcdie57twu41y4nh8sa4t1gqhjcedkcaaks4q4aut85nwn65wj6qifo -->
<g id="node16" class="node">
<title>nano_131ubrcdie57twu41y4nh8sa4t1gqhjcedkcaaks4q4aut85nwn65wj6qifo</title>
<g id="a_node16"><a xlink:href="https://nanocrawler.cc/explorer/account/nano_131ubrcdie57twu41y4nh8sa4t1gqhjcedkcaaks4q4aut85nwn65wj6qifo/history" xlink:title="nano_131ub">
<ellipse fill="none" stroke="black" cx="1037.63" cy="-250.75" rx="55.79" ry="18"/>
<text text-anchor="middle" x="1037.63" y="-247.05" font-family="Times New Roman,serif" font-size="14.00">nano_131ub</text>
</a>
</g>
</g>
<!-- nano_3r3maaoa4a15rxy587gg9minmayyfb3b5r6ynhywgtdey6pjkyn1tb3c7r4x&#45;&gt;nano_131ubrcdie57twu41y4nh8sa4t1gqhjcedkcaaks4q4aut85nwn65wj6qifo -->
<g id="edge17" class="edge">
<title>nano_3r3maaoa4a15rxy587gg9minmayyfb3b5r6ynhywgtdey6pjkyn1tb3c7r4x&#45;&gt;nano_131ubrcdie57twu41y4nh8sa4t1gqhjcedkcaaks4q4aut85nwn65wj6qifo</title>
<path fill="none" stroke="black" d="M745.2,-276.44C758.19,-272.33 772.96,-268.23 786.74,-265.75 848.77,-254.6 920.7,-251.27 971.42,-250.48"/>
<polygon fill="black" stroke="black" points="971.63,-253.98 981.59,-250.35 971.55,-246.98 971.63,-253.98"/>
<text text-anchor="middle" x="807.74" y="-269.55" font-family="Times New Roman,serif" font-size="14.00">2.235/1</text>
</g>
<!-- nano_1apfegh11y4juznrgpbz6dqrw8bpheoiw336s1asf818m5joc7r69iuou7s6 -->
<g id="node17" class="node">
<title>nano_1apfegh11y4juznrgpbz6dqrw8bpheoiw336s1asf818m5joc7r69iuou7s6</title>
<g id="a_node17"><a xlink:href="https://nanocrawler.cc/explorer/account/nano_1apfegh11y4juznrgpbz6dqrw8bpheoiw336s1asf818m5joc7r69iuou7s6/history" xlink:title="nano_1apfe">
<ellipse fill="none" stroke="black" cx="1432.19" cy="-123.75" rx="53.09" ry="18"/>
<text text-anchor="middle" x="1432.19" y="-120.05" font-family="Times New Roman,serif" font-size="14.00">nano_1apfe</text>
</a>
</g>
</g>
<!-- nano_1qqekerd1dand9j78ec6rsrhrac6rptiuwei86eh3fkdmw9r5khtwdtgfd4w&#45;&gt;nano_1apfegh11y4juznrgpbz6dqrw8bpheoiw336s1asf818m5joc7r69iuou7s6 -->
<g id="edge18" class="edge">
<title>nano_1qqekerd1dand9j78ec6rsrhrac6rptiuwei86eh3fkdmw9r5khtwdtgfd4w&#45;&gt;nano_1apfegh11y4juznrgpbz6dqrw8bpheoiw336s1asf818m5joc7r69iuou7s6</title>
<path fill="none" stroke="black" d="M1210.99,-190.59C1249.32,-179.09 1308.39,-161.33 1359.6,-145.75 1367.03,-143.49 1374.9,-141.09 1382.59,-138.73"/>
<polygon fill="black" stroke="black" points="1383.66,-142.06 1392.19,-135.78 1381.6,-135.37 1383.66,-142.06"/>
<text text-anchor="middle" x="1302.4" y="-182.55" font-family="Times New Roman,serif" font-size="14.00">2.2/1</text>
</g>
<!-- nano_33tgqesgpm819xhgynbnq7jzk95tkkfpqkt9m1meuzbaeejy8u98w33xpgdk -->
<g id="node18" class="node">
<title>nano_33tgqesgpm819xhgynbnq7jzk95tkkfpqkt9m1meuzbaeejy8u98w33xpgdk</title>
<g id="a_node18"><a xlink:href="https://nanocrawler.cc/explorer/account/nano_33tgqesgpm819xhgynbnq7jzk95tkkfpqkt9m1meuzbaeejy8u98w33xpgdk/history" xlink:title="nano_33tgq">
<ellipse fill="none" stroke="black" cx="1432.19" cy="-210.75" rx="53.89" ry="18"/>
<text text-anchor="middle" x="1432.19" y="-207.05" font-family="Times New Roman,serif" font-size="14.00">nano_33tgq</text>
</a>
</g>
</g>
<!-- nano_1qqekerd1dand9j78ec6rsrhrac6rptiuwei86eh3fkdmw9r5khtwdtgfd4w&#45;&gt;nano_33tgqesgpm819xhgynbnq7jzk95tkkfpqkt9m1meuzbaeejy8u98w33xpgdk -->
<g id="edge19" class="edge">
<title>nano_1qqekerd1dand9j78ec6rsrhrac6rptiuwei86eh3fkdmw9r5khtwdtgfd4w&#45;&gt;nano_33tgqesgpm819xhgynbnq7jzk95tkkfpqkt9m1meuzbaeejy8u98w33xpgdk</title>
<path fill="none" stroke="black" d="M1225.04,-204.43C1266.81,-205.71 1324.43,-207.48 1368.14,-208.82"/>
<polygon fill="black" stroke="black" points="1368.27,-212.32 1378.37,-209.13 1368.48,-205.33 1368.27,-212.32"/>
<text text-anchor="middle" x="1302.4" y="-211.55" font-family="Times New Roman,serif" font-size="14.00">5.55/1</text>
</g>
<!-- nano_1ktsbgw1n67acgrqoido86yozomnogon1khaad3mhzuqetks13w3jqbbwph6 -->
<g id="node20" class="node">
<title>nano_1ktsbgw1n67acgrqoido86yozomnogon1khaad3mhzuqetks13w3jqbbwph6</title>
<g id="a_node20"><a xlink:href="https://nanocrawler.cc/explorer/account/nano_1ktsbgw1n67acgrqoido86yozomnogon1khaad3mhzuqetks13w3jqbbwph6/history" xlink:title="nano_1ktsb">
<ellipse fill="none" stroke="black" cx="1432.19" cy="-69.75" rx="53.09" ry="18"/>
<text text-anchor="middle" x="1432.19" y="-66.05" font-family="Times New Roman,serif" font-size="14.00">nano_1ktsb</text>
</a>
</g>
</g>
<!-- nano_3oqahrgqmb51j6tap96x3yhphrguy8a597ugm5t91g73tgnkfmdh6dbuyx5d&#45;&gt;nano_1ktsbgw1n67acgrqoido86yozomnogon1khaad3mhzuqetks13w3jqbbwph6 -->
<g id="edge25" class="edge">
<title>nano_3oqahrgqmb51j6tap96x3yhphrguy8a597ugm5t91g73tgnkfmdh6dbuyx5d&#45;&gt;nano_1ktsbgw1n67acgrqoido86yozomnogon1khaad3mhzuqetks13w3jqbbwph6</title>
<path fill="none" stroke="black" d="M959.56,-112.01C1044.94,-117.57 1217.22,-123.59 1359.6,-95.75 1369.53,-93.81 1379.92,-90.71 1389.6,-87.31"/>
<polygon fill="black" stroke="black" points="1390.84,-90.59 1399.01,-83.85 1388.42,-84.02 1390.84,-90.59"/>
<text text-anchor="middle" x="1169.37" y="-120.55" font-family="Times New Roman,serif" font-size="14.00">2.045/1</text>
</g>
<!-- nano_1x1khayww4yyb1h8git5qns53saraifyja6h78jfspix597gdgr7ntqwgsi8 -->
<g id="node21" class="node">
<title>nano_1x1khayww4yyb1h8git5qns53saraifyja6h78jfspix597gdgr7ntqwgsi8</title>
<g id="a_node21"><a xlink:href="https://nanocrawler.cc/explorer/account/nano_1x1khayww4yyb1h8git5qns53saraifyja6h78jfspix597gdgr7ntqwgsi8/history" xlink:title="nano_1x1kh">
<ellipse fill="none" stroke="black" cx="1169.37" cy="-27.75" rx="55.49" ry="18"/>
<text text-anchor="middle" x="1169.37" y="-24.05" font-family="Times New Roman,serif" font-size="14.00">nano_1x1kh</text>
</a>
</g>
</g>
<!-- nano_3oqahrgqmb51j6tap96x3yhphrguy8a597ugm5t91g73tgnkfmdh6dbuyx5d&#45;&gt;nano_1x1khayww4yyb1h8git5qns53saraifyja6h78jfspix597gdgr7ntqwgsi8 -->
<g id="edge26" class="edge">
<title>nano_3oqahrgqmb51j6tap96x3yhphrguy8a597ugm5t91g73tgnkfmdh6dbuyx5d&#45;&gt;nano_1x1khayww4yyb1h8git5qns53saraifyja6h78jfspix597gdgr7ntqwgsi8</title>
<path fill="none" stroke="black" d="M924.2,-90.64C938.58,-77.99 959.91,-61.51 981.73,-52.75 1020.42,-37.24 1066.87,-30.98 1103.75,-28.6"/>
<polygon fill="black" stroke="black" points="1104.1,-32.09 1113.89,-28.03 1103.71,-25.1 1104.1,-32.09"/>
<text text-anchor="middle" x="1037.63" y="-56.55" font-family="Times New Roman,serif" font-size="14.00">11.4/1</text>
</g>
<!-- nano_3jwrszth46rk1mu7rmb4rhm54us8yg1gw3ipodftqtikf5yqdyr7471nsg1k -->
<g id="node19" class="node">
<title>nano_3jwrszth46rk1mu7rmb4rhm54us8yg1gw3ipodftqtikf5yqdyr7471nsg1k</title>
<g id="a_node19"><a xlink:href="https://nanocrawler.cc/explorer/account/nano_3jwrszth46rk1mu7rmb4rhm54us8yg1gw3ipodftqtikf5yqdyr7471nsg1k/history" xlink:title="Binance">
<ellipse fill="none" stroke="black" cx="1821.73" cy="-256.75" rx="39.79" ry="18"/>
<text text-anchor="middle" x="1821.73" y="-253.05" font-family="Times New Roman,serif" font-size="14.00">Binance</text>
</a>
</g>
</g>
<!-- nano_1yn4ips8wry57sfj4hnkgodyrpu67bgpeassmrne46sg9uhr6obnmkgxyr9q&#45;&gt;nano_3jwrszth46rk1mu7rmb4rhm54us8yg1gw3ipodftqtikf5yqdyr7471nsg1k -->
<g id="edge23" class="edge">
<title>nano_1yn4ips8wry57sfj4hnkgodyrpu67bgpeassmrne46sg9uhr6obnmkgxyr9q&#45;&gt;nano_3jwrszth46rk1mu7rmb4rhm54us8yg1gw3ipodftqtikf5yqdyr7471nsg1k</title>
<path fill="none" stroke="black" d="M1670.27,-256.75C1701.5,-256.75 1741.05,-256.75 1771.76,-256.75"/>
<polygon fill="black" stroke="black" points="1771.81,-260.25 1781.81,-256.75 1771.81,-253.25 1771.81,-260.25"/>
<text text-anchor="middle" x="1726.08" y="-260.55" font-family="Times New Roman,serif" font-size="14.00">549.014000/5</text>
</g>
<!-- nano_33q7mbzzx4urqwjz59pyweiba1scjp7aiemk3wctfwund7mpr4autyed4hy3&#45;&gt;nano_1urt4m979igp1bfrnrajswarfscj7aw5gdsy7jkzgbhmob5zcayjq5hqwe9e -->
<g id="edge29" class="edge">
<title>nano_33q7mbzzx4urqwjz59pyweiba1scjp7aiemk3wctfwund7mpr4autyed4hy3&#45;&gt;nano_1urt4m979igp1bfrnrajswarfscj7aw5gdsy7jkzgbhmob5zcayjq5hqwe9e</title>
<path fill="none" stroke="black" d="M1122.63,-592.56C1113.05,-594.53 1102.99,-596.39 1093.52,-597.75 1051.63,-603.77 1004.07,-607.28 967.36,-609.29"/>
<polygon fill="black" stroke="black" points="967.11,-605.79 957.31,-609.81 967.48,-612.78 967.11,-605.79"/>
<text text-anchor="middle" x="1037.63" y="-611.55" font-family="Times New Roman,serif" font-size="14.00">12.904999/2</text>
</g>
<!-- nano_37h1aqpeesn5xap4mjjjj9gnmdkyptn8mmmb1xhx8m6176h8emaeps5wq67q&#45;&gt;nano_1z7oxugm9ce8xpt1wh4i5zp47mpfjbneimewmpdo1w6mups88adkmggby1q9 -->
<g id="edge30" class="edge">
<title>nano_37h1aqpeesn5xap4mjjjj9gnmdkyptn8mmmb1xhx8m6176h8emaeps5wq67q&#45;&gt;nano_1z7oxugm9ce8xpt1wh4i5zp47mpfjbneimewmpdo1w6mups88adkmggby1q9</title>
<path fill="none" stroke="black" d="M1379.2,-417.26C1372.6,-416.73 1365.94,-416.21 1359.6,-415.75 1144.26,-400.12 888.58,-385.6 771.84,-379.2"/>
<polygon fill="black" stroke="black" points="771.84,-375.69 761.66,-378.64 771.45,-382.68 771.84,-375.69"/>
<text text-anchor="middle" x="1037.63" y="-401.55" font-family="Times New Roman,serif" font-size="14.00">15.795/1</text>
</g>
<!-- nano_3gmobrncois7fe1pn9ue5niqtbsw6jp68oscfxuqptymjs7ebi6fz8sjq1ou&#45;&gt;nano_37h1aqpeesn5xap4mjjjj9gnmdkyptn8mmmb1xhx8m6176h8emaeps5wq67q -->
<g id="edge27" class="edge">
<title>nano_3gmobrncois7fe1pn9ue5niqtbsw6jp68oscfxuqptymjs7ebi6fz8sjq1ou&#45;&gt;nano_37h1aqpeesn5xap4mjjjj9gnmdkyptn8mmmb1xhx8m6176h8emaeps5wq67q</title>
<path fill="none" stroke="black" d="M957.31,-434.45C965.46,-433.37 973.81,-432.42 981.73,-431.75 1118.83,-420.28 1280.23,-419.87 1367.46,-420.72"/>
<polygon fill="black" stroke="black" points="1367.43,-424.22 1377.46,-420.83 1367.5,-417.22 1367.43,-424.22"/>
<text text-anchor="middle" x="1169.37" y="-427.55" font-family="Times New Roman,serif" font-size="14.00">1.02/1</text>
</g>
<!-- nano_31tmowcaa9r7wj91646tn89x3358g1sts4xpkbudwihzf6w6za1azu37mybe -->
<g id="node22" class="node">
<title>nano_31tmowcaa9r7wj91646tn89x3358g1sts4xpkbudwihzf6w6za1azu37mybe</title>
<g id="a_node22"><a xlink:href="https://nanocrawler.cc/explorer/account/nano_31tmowcaa9r7wj91646tn89x3358g1sts4xpkbudwihzf6w6za1azu37mybe/history" xlink:title="nano_31tmo">
<ellipse fill="none" stroke="black" cx="1169.37" cy="-472.75" rx="55.79" ry="18"/>
<text text-anchor="middle" x="1169.37" y="-469.05" font-family="Times New Roman,serif" font-size="14.00">nano_31tmo</text>
</a>
</g>
</g>
<!-- nano_3gmobrncois7fe1pn9ue5niqtbsw6jp68oscfxuqptymjs7ebi6fz8sjq1ou&#45;&gt;nano_31tmowcaa9r7wj91646tn89x3358g1sts4xpkbudwihzf6w6za1azu37mybe -->
<g id="edge28" class="edge">
<title>nano_3gmobrncois7fe1pn9ue5niqtbsw6jp68oscfxuqptymjs7ebi6fz8sjq1ou&#45;&gt;nano_31tmowcaa9r7wj91646tn89x3358g1sts4xpkbudwihzf6w6za1azu37mybe</title>
<path fill="none" stroke="black" d="M961.65,-437.82C999.2,-435.75 1049.76,-435.45 1093.52,-443.75 1105.06,-445.94 1117.12,-449.84 1128.1,-454.07"/>
<polygon fill="black" stroke="black" points="1126.85,-457.34 1137.43,-457.85 1129.48,-450.85 1126.85,-457.34"/>
<text text-anchor="middle" x="1037.63" y="-447.55" font-family="Times New Roman,serif" font-size="14.00">12.575/1</text>
</g>
<!-- nano_1ewpuigknz9k9xug77xw8d8w1auyuas35k3y1oxbcap64rx3pdi8wzbo5o5w&#45;&gt;nano_1yn4ips8wry57sfj4hnkgodyrpu67bgpeassmrne46sg9uhr6obnmkgxyr9q -->
<g id="edge24" class="edge">
<title>nano_1ewpuigknz9k9xug77xw8d8w1auyuas35k3y1oxbcap64rx3pdi8wzbo5o5w&#45;&gt;nano_1yn4ips8wry57sfj4hnkgodyrpu67bgpeassmrne46sg9uhr6obnmkgxyr9q</title>
<path fill="none" stroke="black" d="M1351.03,-701.44C1405.77,-709.56 1494.74,-713.02 1546.79,-663.75 1601.78,-611.7 1613.44,-368.43 1615.84,-284.95"/>
<polygon fill="black" stroke="black" points="1619.34,-285.02 1616.1,-274.93 1612.34,-284.83 1619.34,-285.02"/>
<text text-anchor="middle" x="1432.19" y="-709.55" font-family="Times New Roman,serif" font-size="14.00">6.000001/1</text>
</g>
<!-- nano_131ubrcdie57twu41y4nh8sa4t1gqhjcedkcaaks4q4aut85nwn65wj6qifo&#45;&gt;nano_1yn4ips8wry57sfj4hnkgodyrpu67bgpeassmrne46sg9uhr6obnmkgxyr9q -->
<g id="edge32" class="edge">
<title>nano_131ubrcdie57twu41y4nh8sa4t1gqhjcedkcaaks4q4aut85nwn65wj6qifo&#45;&gt;nano_1yn4ips8wry57sfj4hnkgodyrpu67bgpeassmrne46sg9uhr6obnmkgxyr9q</title>
<path fill="none" stroke="black" d="M1093.51,-251.32C1201.41,-252.44 1440.54,-254.93 1554.16,-256.11"/>
<polygon fill="black" stroke="black" points="1554.39,-259.61 1564.43,-256.21 1554.46,-252.61 1554.39,-259.61"/>
<text text-anchor="middle" x="1302.4" y="-257.55" font-family="Times New Roman,serif" font-size="14.00">4.255/1</text>
</g>
<!-- nano_1apfegh11y4juznrgpbz6dqrw8bpheoiw336s1asf818m5joc7r69iuou7s6&#45;&gt;nano_1yn4ips8wry57sfj4hnkgodyrpu67bgpeassmrne46sg9uhr6obnmkgxyr9q -->
<g id="edge33" class="edge">
<title>nano_1apfegh11y4juznrgpbz6dqrw8bpheoiw336s1asf818m5joc7r69iuou7s6&#45;&gt;nano_1yn4ips8wry57sfj4hnkgodyrpu67bgpeassmrne46sg9uhr6obnmkgxyr9q</title>
<path fill="none" stroke="black" d="M1458.49,-139.68C1481.83,-154.61 1517.24,-177.86 1546.79,-199.75 1561.1,-210.36 1576.48,-222.83 1589.14,-233.39"/>
<polygon fill="black" stroke="black" points="1587.12,-236.26 1597.02,-240.02 1591.62,-230.91 1587.12,-236.26"/>
<text text-anchor="middle" x="1525.79" y="-203.55" font-family="Times New Roman,serif" font-size="14.00">14.21/2</text>
</g>
<!-- nano_1apfegh11y4juznrgpbz6dqrw8bpheoiw336s1asf818m5joc7r69iuou7s6&#45;&gt;nano_1apfegh11y4juznrgpbz6dqrw8bpheoiw336s1asf818m5joc7r69iuou7s6 -->
<g id="edge34" class="edge">
<title>nano_1apfegh11y4juznrgpbz6dqrw8bpheoiw336s1asf818m5joc7r69iuou7s6&#45;&gt;nano_1apfegh11y4juznrgpbz6dqrw8bpheoiw336s1asf818m5joc7r69iuou7s6</title>
<path fill="none" stroke="black" d="M1415.77,-141.16C1412.7,-150.84 1418.18,-159.75 1432.19,-159.75 1440.95,-159.75 1446.38,-156.27 1448.47,-151.3"/>
<polygon fill="black" stroke="black" points="1451.97,-151.22 1448.62,-141.16 1444.97,-151.11 1451.97,-151.22"/>
<text text-anchor="middle" x="1432.19" y="-163.55" font-family="Times New Roman,serif" font-size="14.00">8.02/2</text>
</g>
<!-- nano_33tgqesgpm819xhgynbnq7jzk95tkkfpqkt9m1meuzbaeejy8u98w33xpgdk&#45;&gt;nano_1yn4ips8wry57sfj4hnkgodyrpu67bgpeassmrne46sg9uhr6obnmkgxyr9q -->
<g id="edge31" class="edge">
<title>nano_33tgqesgpm819xhgynbnq7jzk95tkkfpqkt9m1meuzbaeejy8u98w33xpgdk&#45;&gt;nano_1yn4ips8wry57sfj4hnkgodyrpu67bgpeassmrne46sg9uhr6obnmkgxyr9q</title>
<path fill="none" stroke="black" d="M1484.37,-215.7C1504.1,-218.31 1526.72,-222.16 1546.79,-227.75 1556.73,-230.52 1567.14,-234.33 1576.8,-238.28"/>
<polygon fill="black" stroke="black" points="1575.58,-241.56 1586.16,-242.24 1578.31,-235.12 1575.58,-241.56"/>
<text text-anchor="middle" x="1525.79" y="-231.55" font-family="Times New Roman,serif" font-size="14.00">15.07/1</text>
</g>
<!-- nano_1ktsbgw1n67acgrqoido86yozomnogon1khaad3mhzuqetks13w3jqbbwph6&#45;&gt;nano_3oqahrgqmb51j6tap96x3yhphrguy8a597ugm5t91g73tgnkfmdh6dbuyx5d -->
<g id="edge38" class="edge">
<title>nano_1ktsbgw1n67acgrqoido86yozomnogon1khaad3mhzuqetks13w3jqbbwph6&#45;&gt;nano_3oqahrgqmb51j6tap96x3yhphrguy8a597ugm5t91g73tgnkfmdh6dbuyx5d</title>
<path fill="none" stroke="black" d="M1379.89,-73.47C1283.46,-80.45 1075.45,-95.5 970.12,-103.13"/>
<polygon fill="black" stroke="black" points="969.67,-99.65 959.95,-103.87 970.17,-106.63 969.67,-99.65"/>
<text text-anchor="middle" x="1169.37" y="-96.55" font-family="Times New Roman,serif" font-size="14.00">3.27/1</text>
</g>
<!-- nano_1ktsbgw1n67acgrqoido86yozomnogon1khaad3mhzuqetks13w3jqbbwph6&#45;&gt;nano_1yn4ips8wry57sfj4hnkgodyrpu67bgpeassmrne46sg9uhr6obnmkgxyr9q -->
<g id="edge37" class="edge">
<title>nano_1ktsbgw1n67acgrqoido86yozomnogon1khaad3mhzuqetks13w3jqbbwph6&#45;&gt;nano_1yn4ips8wry57sfj4hnkgodyrpu67bgpeassmrne46sg9uhr6obnmkgxyr9q</title>
<path fill="none" stroke="black" d="M1465.2,-84.06C1472.51,-87.83 1480.1,-92.14 1486.79,-96.75 1516.56,-117.31 1523.29,-124.25 1546.79,-151.75 1568.06,-176.63 1588.25,-208.3 1601.37,-230.32"/>
<polygon fill="black" stroke="black" points="1598.46,-232.27 1606.54,-239.12 1604.49,-228.72 1598.46,-232.27"/>
<text text-anchor="middle" x="1525.79" y="-155.55" font-family="Times New Roman,serif" font-size="14.00">6.765/1</text>
</g>
<!-- nano_1x1khayww4yyb1h8git5qns53saraifyja6h78jfspix597gdgr7ntqwgsi8&#45;&gt;nano_1yn4ips8wry57sfj4hnkgodyrpu67bgpeassmrne46sg9uhr6obnmkgxyr9q -->
<g id="edge36" class="edge">
<title>nano_1x1khayww4yyb1h8git5qns53saraifyja6h78jfspix597gdgr7ntqwgsi8&#45;&gt;nano_1yn4ips8wry57sfj4hnkgodyrpu67bgpeassmrne46sg9uhr6obnmkgxyr9q</title>
<path fill="none" stroke="black" d="M1212.7,-16.5C1276.01,-2.07 1397.46,16.23 1486.79,-27.75 1565.78,-66.65 1599.31,-176.77 1611.07,-228.83"/>
<polygon fill="black" stroke="black" points="1607.67,-229.68 1613.19,-238.72 1614.51,-228.2 1607.67,-229.68"/>
<text text-anchor="middle" x="1432.19" y="-31.55" font-family="Times New Roman,serif" font-size="14.00">11.4/1</text>
</g>
<!-- nano_1x1khayww4yyb1h8git5qns53saraifyja6h78jfspix597gdgr7ntqwgsi8&#45;&gt;nano_1ktsbgw1n67acgrqoido86yozomnogon1khaad3mhzuqetks13w3jqbbwph6 -->
<g id="edge35" class="edge">
<title>nano_1x1khayww4yyb1h8git5qns53saraifyja6h78jfspix597gdgr7ntqwgsi8&#45;&gt;nano_1ktsbgw1n67acgrqoido86yozomnogon1khaad3mhzuqetks13w3jqbbwph6</title>
<path fill="none" stroke="black" d="M1222.39,-33.18C1260.53,-37.51 1313.49,-44.26 1359.6,-52.75 1365.95,-53.92 1372.58,-55.29 1379.14,-56.74"/>
<polygon fill="black" stroke="black" points="1378.8,-60.25 1389.32,-59.06 1380.35,-53.43 1378.8,-60.25"/>
<text text-anchor="middle" x="1302.4" y="-56.55" font-family="Times New Roman,serif" font-size="14.00">1/1</text>
</g>
<!-- nano_31tmowcaa9r7wj91646tn89x3358g1sts4xpkbudwihzf6w6za1azu37mybe&#45;&gt;nano_1yn4ips8wry57sfj4hnkgodyrpu67bgpeassmrne46sg9uhr6obnmkgxyr9q -->
<g id="edge40" class="edge">
<title>nano_31tmowcaa9r7wj91646tn89x3358g1sts4xpkbudwihzf6w6za1azu37mybe&#45;&gt;nano_1yn4ips8wry57sfj4hnkgodyrpu67bgpeassmrne46sg9uhr6obnmkgxyr9q</title>
<path fill="none" stroke="black" d="M1217.1,-482.17C1282.95,-492.76 1404.21,-502.16 1486.79,-448.75 1549.01,-408.51 1588.82,-326.75 1606.25,-284.08"/>
<polygon fill="black" stroke="black" points="1609.57,-285.19 1610.01,-274.61 1603.07,-282.61 1609.57,-285.19"/>
<text text-anchor="middle" x="1432.19" y="-489.55" font-family="Times New Roman,serif" font-size="14.00">14.710/2</text>
</g>
<!-- nano_31tmowcaa9r7wj91646tn89x3358g1sts4xpkbudwihzf6w6za1azu37mybe&#45;&gt;nano_37h1aqpeesn5xap4mjjjj9gnmdkyptn8mmmb1xhx8m6176h8emaeps5wq67q -->
<g id="edge39" class="edge">
<title>nano_31tmowcaa9r7wj91646tn89x3358g1sts4xpkbudwihzf6w6za1azu37mybe&#45;&gt;nano_37h1aqpeesn5xap4mjjjj9gnmdkyptn8mmmb1xhx8m6176h8emaeps5wq67q</title>
<path fill="none" stroke="black" d="M1215.02,-462.28C1224.94,-460.05 1235.42,-457.76 1245.21,-455.75 1287.98,-446.99 1336.5,-438.16 1373.26,-431.69"/>
<polygon fill="black" stroke="black" points="1374.06,-435.1 1383.31,-429.93 1372.85,-428.21 1374.06,-435.1"/>
<text text-anchor="middle" x="1302.4" y="-459.55" font-family="Times New Roman,serif" font-size="14.00">2.53/1</text>
</g>
<!-- nano_31tmowcaa9r7wj91646tn89x3358g1sts4xpkbudwihzf6w6za1azu37mybe&#45;&gt;nano_3gmobrncois7fe1pn9ue5niqtbsw6jp68oscfxuqptymjs7ebi6fz8sjq1ou -->
<g id="edge41" class="edge">
<title>nano_31tmowcaa9r7wj91646tn89x3358g1sts4xpkbudwihzf6w6za1azu37mybe&#45;&gt;nano_3gmobrncois7fe1pn9ue5niqtbsw6jp68oscfxuqptymjs7ebi6fz8sjq1ou</title>
<path fill="none" stroke="black" d="M1113.85,-470.59C1076.52,-468.64 1025.96,-465.07 981.73,-458.75 975.46,-457.86 968.94,-456.75 962.46,-455.53"/>
<polygon fill="black" stroke="black" points="962.86,-452.05 952.37,-453.55 961.51,-458.91 962.86,-452.05"/>
<text text-anchor="middle" x="1037.63" y="-472.55" font-family="Times New Roman,serif" font-size="14.00">2.08/1</text>
</g>
</g>
</svg>
