<?xml version="1.0" encoding="UTF-8" standalone="no"?>
<!DOCTYPE svg PUBLIC "-//W3C//DTD SVG 1.1//EN"
 "http://www.w3.org/Graphics/SVG/1.1/DTD/svg11.dtd">
<!-- Generated by graphviz version 2.46.1 (20210213.1702)
 -->
<!-- Pages: 1 -->
<svg width="1481pt" height="1132pt"
 viewBox="0.00 0.00 1481.01 1132.00" xmlns="http://www.w3.org/2000/svg" xmlns:xlink="http://www.w3.org/1999/xlink">
<g id="graph0" class="graph" transform="scale(1 1) rotate(0) translate(4 1128)">
<polygon fill="white" stroke="transparent" points="-4,4 -4,-1128 1477.01,-1128 1477.01,4 -4,4"/>
<!-- nano_3qukghwxdtsotxgey38qmo69trqtuxiteztgnb5o5gn5nuhhwhxf7kf8ga6r -->
<g id="node1" class="node">
<title>nano_3qukghwxdtsotxgey38qmo69trqtuxiteztgnb5o5gn5nuhhwhxf7kf8ga6r</title>
<g id="a_node1"><a xlink:href="https://nanocrawler.cc/explorer/account/nano_3qukghwxdtsotxgey38qmo69trqtuxiteztgnb5o5gn5nuhhwhxf7kf8ga6r/history" xlink:title="nano_3qukghwxdtsotxgey38qmo69trqtuxiteztgnb5o5gn5nuhhwhxf7kf8ga6r">
<ellipse fill="none" stroke="black" cx="756.56" cy="-855" rx="284.05" ry="18"/>
<text text-anchor="middle" x="756.56" y="-851.3" font-family="Times New Roman,serif" font-size="14.00">nano_3qukghwxdtsotxgey38qmo69trqtuxiteztgnb5o5gn5nuhhwhxf7kf8ga6r</text>
</a>
</g>
</g>
<!-- nano_1u15x5esbkkrd5asrbmnxkw73fycfk4itdanwmu3zaeojuomjq7yztcgrnim -->
<g id="node12" class="node">
<title>nano_1u15x5esbkkrd5asrbmnxkw73fycfk4itdanwmu3zaeojuomjq7yztcgrnim</title>
<g id="a_node12"><a xlink:href="https://nanocrawler.cc/explorer/account/nano_1u15x5esbkkrd5asrbmnxkw73fycfk4itdanwmu3zaeojuomjq7yztcgrnim/history" xlink:title="nano_1u15x">
<ellipse fill="none" stroke="black" cx="1203.43" cy="-887" rx="55.49" ry="18"/>
<text text-anchor="middle" x="1203.43" y="-883.3" font-family="Times New Roman,serif" font-size="14.00">nano_1u15x</text>
</a>
</g>
</g>
<!-- nano_3qukghwxdtsotxgey38qmo69trqtuxiteztgnb5o5gn5nuhhwhxf7kf8ga6r&#45;&gt;nano_1u15x5esbkkrd5asrbmnxkw73fycfk4itdanwmu3zaeojuomjq7yztcgrnim -->
<g id="edge11" class="edge">
<title>nano_3qukghwxdtsotxgey38qmo69trqtuxiteztgnb5o5gn5nuhhwhxf7kf8ga6r&#45;&gt;nano_1u15x5esbkkrd5asrbmnxkw73fycfk4itdanwmu3zaeojuomjq7yztcgrnim</title>
<path fill="none" stroke="black" d="M960.34,-867.57C1015.27,-871.27 1074.7,-875.53 1129.53,-880 1132.99,-880.28 1136.55,-880.58 1140.13,-880.9"/>
<polygon fill="black" stroke="black" points="1140.01,-884.4 1150.28,-881.81 1140.63,-877.43 1140.01,-884.4"/>
<text text-anchor="middle" x="1095.03" y="-883.8" font-family="Times New Roman,serif" font-size="14.00">0.000434/1</text>
</g>
<!-- nano_3dfcy7uf4xzfxzo8htck9h9xko9saxinypjy5s9t34tat4wx8npkjrgbd79q -->
<g id="node2" class="node">
<title>nano_3dfcy7uf4xzfxzo8htck9h9xko9saxinypjy5s9t34tat4wx8npkjrgbd79q</title>
<g id="a_node2"><a xlink:href="https://nanocrawler.cc/explorer/account/nano_3dfcy7uf4xzfxzo8htck9h9xko9saxinypjy5s9t34tat4wx8npkjrgbd79q/history" xlink:title="nano_3dfcy7uf4xzfxzo8htck9h9xko9saxinypjy5s9t34tat4wx8npkjrgbd79q">
<ellipse fill="none" stroke="black" cx="756.56" cy="-340" rx="278.35" ry="18"/>
<text text-anchor="middle" x="756.56" y="-336.3" font-family="Times New Roman,serif" font-size="14.00">nano_3dfcy7uf4xzfxzo8htck9h9xko9saxinypjy5s9t34tat4wx8npkjrgbd79q</text>
</a>
</g>
</g>
<!-- nano_15ju6jzwg6o3qp7zp3wtezbmeg39jn959o7f7irgz1mi6teipy1hdi9qup6i -->
<g id="node13" class="node">
<title>nano_15ju6jzwg6o3qp7zp3wtezbmeg39jn959o7f7irgz1mi6teipy1hdi9qup6i</title>
<g id="a_node13"><a xlink:href="https://nanocrawler.cc/explorer/account/nano_15ju6jzwg6o3qp7zp3wtezbmeg39jn959o7f7irgz1mi6teipy1hdi9qup6i/history" xlink:title="nano_15ju6">
<ellipse fill="none" stroke="black" cx="1203.43" cy="-448" rx="52.79" ry="18"/>
<text text-anchor="middle" x="1203.43" y="-444.3" font-family="Times New Roman,serif" font-size="14.00">nano_15ju6</text>
</a>
</g>
</g>
<!-- nano_3dfcy7uf4xzfxzo8htck9h9xko9saxinypjy5s9t34tat4wx8npkjrgbd79q&#45;&gt;nano_15ju6jzwg6o3qp7zp3wtezbmeg39jn959o7f7irgz1mi6teipy1hdi9qup6i -->
<g id="edge12" class="edge">
<title>nano_3dfcy7uf4xzfxzo8htck9h9xko9saxinypjy5s9t34tat4wx8npkjrgbd79q&#45;&gt;nano_15ju6jzwg6o3qp7zp3wtezbmeg39jn959o7f7irgz1mi6teipy1hdi9qup6i</title>
<path fill="none" stroke="black" d="M923.55,-325.58C1005.43,-321.41 1094.09,-322.2 1129.53,-341 1160.91,-357.65 1181.32,-394.51 1192.35,-420.29"/>
<polygon fill="black" stroke="black" points="1189.25,-421.95 1196.26,-429.9 1195.74,-419.32 1189.25,-421.95"/>
<text text-anchor="middle" x="1095.03" y="-344.8" font-family="Times New Roman,serif" font-size="14.00">0.001988/1</text>
</g>
<!-- nano_3qdckuyaatbudh5g4mz9ws3ihb5uesth3n9m4rp5eojoed5zaz4ifd9xc1ig -->
<g id="node3" class="node">
<title>nano_3qdckuyaatbudh5g4mz9ws3ihb5uesth3n9m4rp5eojoed5zaz4ifd9xc1ig</title>
<g id="a_node3"><a xlink:href="https://nanocrawler.cc/explorer/account/nano_3qdckuyaatbudh5g4mz9ws3ihb5uesth3n9m4rp5eojoed5zaz4ifd9xc1ig/history" xlink:title="nano_3qdckuyaatbudh5g4mz9ws3ihb5uesth3n9m4rp5eojoed5zaz4ifd9xc1ig">
<ellipse fill="none" stroke="black" cx="756.56" cy="-178" rx="285.95" ry="18"/>
<text text-anchor="middle" x="756.56" y="-174.3" font-family="Times New Roman,serif" font-size="14.00">nano_3qdckuyaatbudh5g4mz9ws3ihb5uesth3n9m4rp5eojoed5zaz4ifd9xc1ig</text>
</a>
</g>
</g>
<!-- nano_34prihdxwz3u4ps8qjnn14p7ujyewkoxkwyxm3u665it8rg5rdqw84qrypzk -->
<g id="node4" class="node">
<title>nano_34prihdxwz3u4ps8qjnn14p7ujyewkoxkwyxm3u665it8rg5rdqw84qrypzk</title>
<g id="a_node4"><a xlink:href="https://nanocrawler.cc/explorer/account/nano_34prihdxwz3u4ps8qjnn14p7ujyewkoxkwyxm3u665it8rg5rdqw84qrypzk/history" xlink:title="nano&#45;faucet.org">
<ellipse fill="none" stroke="black" cx="105.29" cy="-603" rx="67.69" ry="18"/>
<text text-anchor="middle" x="105.29" y="-599.3" font-family="Times New Roman,serif" font-size="14.00">nano&#45;faucet.org</text>
</a>
</g>
</g>
<!-- nano_34prihdxwz3u4ps8qjnn14p7ujyewkoxkwyxm3u665it8rg5rdqw84qrypzk&#45;&gt;nano_3qukghwxdtsotxgey38qmo69trqtuxiteztgnb5o5gn5nuhhwhxf7kf8ga6r -->
<g id="edge9" class="edge">
<title>nano_34prihdxwz3u4ps8qjnn14p7ujyewkoxkwyxm3u665it8rg5rdqw84qrypzk&#45;&gt;nano_3qukghwxdtsotxgey38qmo69trqtuxiteztgnb5o5gn5nuhhwhxf7kf8ga6r</title>
<path fill="none" stroke="black" d="M111.69,-621.02C124.59,-660.59 161.24,-754.88 228.58,-797 272.8,-824.66 381.15,-839.2 488.19,-846.81"/>
<polygon fill="black" stroke="black" points="487.99,-850.3 498.21,-847.5 488.47,-843.32 487.99,-850.3"/>
<text text-anchor="middle" x="340.58" y="-846.8" font-family="Times New Roman,serif" font-size="14.00">0.000544/4</text>
</g>
<!-- nano_34prihdxwz3u4ps8qjnn14p7ujyewkoxkwyxm3u665it8rg5rdqw84qrypzk&#45;&gt;nano_3dfcy7uf4xzfxzo8htck9h9xko9saxinypjy5s9t34tat4wx8npkjrgbd79q -->
<g id="edge13" class="edge">
<title>nano_34prihdxwz3u4ps8qjnn14p7ujyewkoxkwyxm3u665it8rg5rdqw84qrypzk&#45;&gt;nano_3dfcy7uf4xzfxzo8htck9h9xko9saxinypjy5s9t34tat4wx8npkjrgbd79q</title>
<path fill="none" stroke="black" d="M109.68,-584.82C119.16,-539.63 150.57,-422.25 228.58,-372 251.14,-357.47 363.3,-349.54 478.38,-345.21"/>
<polygon fill="black" stroke="black" points="478.58,-348.7 488.45,-344.84 478.32,-341.71 478.58,-348.7"/>
<text text-anchor="middle" x="340.58" y="-375.8" font-family="Times New Roman,serif" font-size="14.00">0.000131/1</text>
</g>
<!-- nano_34prihdxwz3u4ps8qjnn14p7ujyewkoxkwyxm3u665it8rg5rdqw84qrypzk&#45;&gt;nano_3qdckuyaatbudh5g4mz9ws3ihb5uesth3n9m4rp5eojoed5zaz4ifd9xc1ig -->
<g id="edge1" class="edge">
<title>nano_34prihdxwz3u4ps8qjnn14p7ujyewkoxkwyxm3u665it8rg5rdqw84qrypzk&#45;&gt;nano_3qdckuyaatbudh5g4mz9ws3ihb5uesth3n9m4rp5eojoed5zaz4ifd9xc1ig</title>
<path fill="none" stroke="black" d="M108.28,-584.76C114.84,-534.29 140.67,-392.34 228.58,-328 309.42,-268.84 379.3,-371.29 452.58,-303 484.98,-272.81 437.93,-234.92 470.58,-205 519.78,-159.92 595.77,-154.7 656.91,-159.93"/>
<polygon fill="black" stroke="black" points="656.68,-163.42 666.97,-160.89 657.35,-156.46 656.68,-163.42"/>
<text text-anchor="middle" x="340.58" y="-331.8" font-family="Times New Roman,serif" font-size="14.00">0.000955/6</text>
</g>
<!-- nano_34prihdxwz3u4ps8qjnn14p7ujyewkoxkwyxm3u665it8rg5rdqw84qrypzk&#45;&gt;nano_1u15x5esbkkrd5asrbmnxkw73fycfk4itdanwmu3zaeojuomjq7yztcgrnim -->
<g id="edge27" class="edge">
<title>nano_34prihdxwz3u4ps8qjnn14p7ujyewkoxkwyxm3u665it8rg5rdqw84qrypzk&#45;&gt;nano_1u15x5esbkkrd5asrbmnxkw73fycfk4itdanwmu3zaeojuomjq7yztcgrnim</title>
<path fill="none" stroke="black" d="M113.35,-621.14C128.35,-656.88 167.16,-735.85 228.58,-769 308.28,-812.02 954.64,-791.14 1042.53,-813 1087.92,-824.29 1136.13,-848.49 1167.6,-866.15"/>
<polygon fill="black" stroke="black" points="1165.99,-869.27 1176.41,-871.18 1169.46,-863.18 1165.99,-869.27"/>
<text text-anchor="middle" x="756.56" y="-816.8" font-family="Times New Roman,serif" font-size="14.00">0.000607/4</text>
</g>
<!-- nano_34prihdxwz3u4ps8qjnn14p7ujyewkoxkwyxm3u665it8rg5rdqw84qrypzk&#45;&gt;nano_15ju6jzwg6o3qp7zp3wtezbmeg39jn959o7f7irgz1mi6teipy1hdi9qup6i -->
<g id="edge17" class="edge">
<title>nano_34prihdxwz3u4ps8qjnn14p7ujyewkoxkwyxm3u665it8rg5rdqw84qrypzk&#45;&gt;nano_15ju6jzwg6o3qp7zp3wtezbmeg39jn959o7f7irgz1mi6teipy1hdi9qup6i</title>
<path fill="none" stroke="black" d="M135.82,-586.75C196.38,-554.45 339.95,-483.04 470.58,-457 716.03,-408.08 1017.01,-429.11 1142.77,-441.41"/>
<polygon fill="black" stroke="black" points="1142.66,-444.92 1152.96,-442.42 1143.36,-437.95 1142.66,-444.92"/>
<text text-anchor="middle" x="756.56" y="-460.8" font-family="Times New Roman,serif" font-size="14.00">0.000136/1</text>
</g>
<!-- nano_3w9p9xfnwqcjocyxudfag68c8dcfyxetkwbddjaoymp7cfxo5xf9wbyntdjg -->
<g id="node22" class="node">
<title>nano_3w9p9xfnwqcjocyxudfag68c8dcfyxetkwbddjaoymp7cfxo5xf9wbyntdjg</title>
<g id="a_node22"><a xlink:href="https://nanocrawler.cc/explorer/account/nano_3w9p9xfnwqcjocyxudfag68c8dcfyxetkwbddjaoymp7cfxo5xf9wbyntdjg/history" xlink:title="nano_3w9p9">
<ellipse fill="none" stroke="black" cx="1415.17" cy="-952" rx="57.69" ry="18"/>
<text text-anchor="middle" x="1415.17" y="-948.3" font-family="Times New Roman,serif" font-size="14.00">nano_3w9p9</text>
</a>
</g>
</g>
<!-- nano_34prihdxwz3u4ps8qjnn14p7ujyewkoxkwyxm3u665it8rg5rdqw84qrypzk&#45;&gt;nano_3w9p9xfnwqcjocyxudfag68c8dcfyxetkwbddjaoymp7cfxo5xf9wbyntdjg -->
<g id="edge31" class="edge">
<title>nano_34prihdxwz3u4ps8qjnn14p7ujyewkoxkwyxm3u665it8rg5rdqw84qrypzk&#45;&gt;nano_3w9p9xfnwqcjocyxudfag68c8dcfyxetkwbddjaoymp7cfxo5xf9wbyntdjg</title>
<path fill="none" stroke="black" d="M139.03,-618.62C201.74,-647.78 343.88,-710.13 470.58,-739 757.31,-804.34 845.72,-721.96 1129.53,-799 1229.64,-826.18 1333.62,-893.91 1383.66,-929.44"/>
<polygon fill="black" stroke="black" points="1381.91,-932.49 1392.08,-935.47 1385.99,-926.8 1381.91,-932.49"/>
<text text-anchor="middle" x="1095.03" y="-802.8" font-family="Times New Roman,serif" font-size="14.00">0.001885/12</text>
</g>
<!-- nano_3h93nwx3zcxpkguttqck695m87prxu7m3dn5mokqyzf78mb5jgky9o9n1bd7 -->
<g id="node5" class="node">
<title>nano_3h93nwx3zcxpkguttqck695m87prxu7m3dn5mokqyzf78mb5jgky9o9n1bd7</title>
<g id="a_node5"><a xlink:href="https://nanocrawler.cc/explorer/account/nano_3h93nwx3zcxpkguttqck695m87prxu7m3dn5mokqyzf78mb5jgky9o9n1bd7/history" xlink:title="nano_3h93n">
<ellipse fill="none" stroke="black" cx="105.29" cy="-288" rx="55.49" ry="18"/>
<text text-anchor="middle" x="105.29" y="-284.3" font-family="Times New Roman,serif" font-size="14.00">nano_3h93n</text>
</a>
</g>
</g>
<!-- nano_3h93nwx3zcxpkguttqck695m87prxu7m3dn5mokqyzf78mb5jgky9o9n1bd7&#45;&gt;nano_3qdckuyaatbudh5g4mz9ws3ihb5uesth3n9m4rp5eojoed5zaz4ifd9xc1ig -->
<g id="edge2" class="edge">
<title>nano_3h93nwx3zcxpkguttqck695m87prxu7m3dn5mokqyzf78mb5jgky9o9n1bd7&#45;&gt;nano_3qdckuyaatbudh5g4mz9ws3ihb5uesth3n9m4rp5eojoed5zaz4ifd9xc1ig</title>
<path fill="none" stroke="black" d="M160.61,-287.16C246.15,-284.82 407.17,-276.03 452.58,-243 467.69,-232.01 455.28,-215.73 470.58,-205 478.2,-199.66 486.23,-194.95 494.57,-190.82"/>
<polygon fill="black" stroke="black" points="496.15,-193.95 503.74,-186.56 493.19,-187.6 496.15,-193.95"/>
<text text-anchor="middle" x="340.58" y="-287.8" font-family="Times New Roman,serif" font-size="14.00">0.01/1</text>
</g>
<!-- nano_1y9oznprixeg3r9ac9kp3jqgx1gfq6td6jb57efqxrsixpdigtwdwt8exfmo -->
<g id="node6" class="node">
<title>nano_1y9oznprixeg3r9ac9kp3jqgx1gfq6td6jb57efqxrsixpdigtwdwt8exfmo</title>
<g id="a_node6"><a xlink:href="https://nanocrawler.cc/explorer/account/nano_1y9oznprixeg3r9ac9kp3jqgx1gfq6td6jb57efqxrsixpdigtwdwt8exfmo/history" xlink:title="nano_1y9oz">
<ellipse fill="none" stroke="black" cx="105.29" cy="-234" rx="55.49" ry="18"/>
<text text-anchor="middle" x="105.29" y="-230.3" font-family="Times New Roman,serif" font-size="14.00">nano_1y9oz</text>
</a>
</g>
</g>
<!-- nano_1y9oznprixeg3r9ac9kp3jqgx1gfq6td6jb57efqxrsixpdigtwdwt8exfmo&#45;&gt;nano_3qdckuyaatbudh5g4mz9ws3ihb5uesth3n9m4rp5eojoed5zaz4ifd9xc1ig -->
<g id="edge3" class="edge">
<title>nano_1y9oznprixeg3r9ac9kp3jqgx1gfq6td6jb57efqxrsixpdigtwdwt8exfmo&#45;&gt;nano_3qdckuyaatbudh5g4mz9ws3ihb5uesth3n9m4rp5eojoed5zaz4ifd9xc1ig</title>
<path fill="none" stroke="black" d="M158.87,-229.46C248.86,-221.7 436.33,-205.53 577.26,-193.38"/>
<polygon fill="black" stroke="black" points="577.66,-196.86 587.33,-192.51 577.06,-189.88 577.66,-196.86"/>
<text text-anchor="middle" x="340.58" y="-227.8" font-family="Times New Roman,serif" font-size="14.00">0.000130084/4</text>
</g>
<!-- nano_18rtodfdzxqprb5pamok8surdg91x7wys8yk47uk3xp7cyu3nuc44teysix1 -->
<g id="node7" class="node">
<title>nano_18rtodfdzxqprb5pamok8surdg91x7wys8yk47uk3xp7cyu3nuc44teysix1</title>
<g id="a_node7"><a xlink:href="https://nanocrawler.cc/explorer/account/nano_18rtodfdzxqprb5pamok8surdg91x7wys8yk47uk3xp7cyu3nuc44teysix1/history" xlink:title="nano_18rto">
<ellipse fill="none" stroke="black" cx="105.29" cy="-180" rx="51.99" ry="18"/>
<text text-anchor="middle" x="105.29" y="-176.3" font-family="Times New Roman,serif" font-size="14.00">nano_18rto</text>
</a>
</g>
</g>
<!-- nano_18rtodfdzxqprb5pamok8surdg91x7wys8yk47uk3xp7cyu3nuc44teysix1&#45;&gt;nano_3qdckuyaatbudh5g4mz9ws3ihb5uesth3n9m4rp5eojoed5zaz4ifd9xc1ig -->
<g id="edge4" class="edge">
<title>nano_18rtodfdzxqprb5pamok8surdg91x7wys8yk47uk3xp7cyu3nuc44teysix1&#45;&gt;nano_3qdckuyaatbudh5g4mz9ws3ihb5uesth3n9m4rp5eojoed5zaz4ifd9xc1ig</title>
<path fill="none" stroke="black" d="M157.51,-179.84C223.85,-179.64 344.75,-179.27 460.57,-178.91"/>
<polygon fill="black" stroke="black" points="460.7,-182.41 470.69,-178.88 460.68,-175.41 460.7,-182.41"/>
<text text-anchor="middle" x="340.58" y="-183.8" font-family="Times New Roman,serif" font-size="14.00">0.02354/82</text>
</g>
<!-- nano_3kwppxjcggzs65fjh771ch6dbuic3xthsn5wsg6i5537jacw7m493ra8574x -->
<g id="node8" class="node">
<title>nano_3kwppxjcggzs65fjh771ch6dbuic3xthsn5wsg6i5537jacw7m493ra8574x</title>
<g id="a_node8"><a xlink:href="https://nanocrawler.cc/explorer/account/nano_3kwppxjcggzs65fjh771ch6dbuic3xthsn5wsg6i5537jacw7m493ra8574x/history" xlink:title="FreeNanoFaucet.com">
<ellipse fill="none" stroke="black" cx="105.29" cy="-879" rx="89.08" ry="18"/>
<text text-anchor="middle" x="105.29" y="-875.3" font-family="Times New Roman,serif" font-size="14.00">FreeNanoFaucet.com</text>
</a>
</g>
</g>
<!-- nano_3kwppxjcggzs65fjh771ch6dbuic3xthsn5wsg6i5537jacw7m493ra8574x&#45;&gt;nano_3qukghwxdtsotxgey38qmo69trqtuxiteztgnb5o5gn5nuhhwhxf7kf8ga6r -->
<g id="edge10" class="edge">
<title>nano_3kwppxjcggzs65fjh771ch6dbuic3xthsn5wsg6i5537jacw7m493ra8574x&#45;&gt;nano_3qukghwxdtsotxgey38qmo69trqtuxiteztgnb5o5gn5nuhhwhxf7kf8ga6r</title>
<path fill="none" stroke="black" d="M193.18,-875.79C271.84,-872.88 391.73,-868.45 500.63,-864.42"/>
<polygon fill="black" stroke="black" points="500.93,-867.91 510.79,-864.05 500.67,-860.92 500.93,-867.91"/>
<text text-anchor="middle" x="340.58" y="-877.8" font-family="Times New Roman,serif" font-size="14.00">0.000024/2</text>
</g>
<!-- nano_3kwppxjcggzs65fjh771ch6dbuic3xthsn5wsg6i5537jacw7m493ra8574x&#45;&gt;nano_3qdckuyaatbudh5g4mz9ws3ihb5uesth3n9m4rp5eojoed5zaz4ifd9xc1ig -->
<g id="edge5" class="edge">
<title>nano_3kwppxjcggzs65fjh771ch6dbuic3xthsn5wsg6i5537jacw7m493ra8574x&#45;&gt;nano_3qdckuyaatbudh5g4mz9ws3ihb5uesth3n9m4rp5eojoed5zaz4ifd9xc1ig</title>
<path fill="none" stroke="black" d="M124.07,-861.38C183.26,-801.45 374.32,-597.5 452.58,-387 466.74,-348.91 441.78,-233.68 470.58,-205 520.22,-155.57 601.59,-152.39 664.7,-159.51"/>
<polygon fill="black" stroke="black" points="664.32,-162.99 674.67,-160.74 665.17,-156.04 664.32,-162.99"/>
<text text-anchor="middle" x="340.58" y="-741.8" font-family="Times New Roman,serif" font-size="14.00">0.000048/4</text>
</g>
<!-- nano_3kwppxjcggzs65fjh771ch6dbuic3xthsn5wsg6i5537jacw7m493ra8574x&#45;&gt;nano_1u15x5esbkkrd5asrbmnxkw73fycfk4itdanwmu3zaeojuomjq7yztcgrnim -->
<g id="edge26" class="edge">
<title>nano_3kwppxjcggzs65fjh771ch6dbuic3xthsn5wsg6i5537jacw7m493ra8574x&#45;&gt;nano_1u15x5esbkkrd5asrbmnxkw73fycfk4itdanwmu3zaeojuomjq7yztcgrnim</title>
<path fill="none" stroke="black" d="M180.22,-888.81C196.14,-890.54 212.9,-892.09 228.58,-893 597.71,-914.51 690.77,-894.56 1060.53,-895 1091.2,-895.04 1098.91,-896.68 1129.53,-895 1133.42,-894.79 1137.43,-894.51 1141.46,-894.19"/>
<polygon fill="black" stroke="black" points="1141.85,-897.67 1151.5,-893.31 1141.24,-890.7 1141.85,-897.67"/>
<text text-anchor="middle" x="756.56" y="-905.8" font-family="Times New Roman,serif" font-size="14.00">0.000036/3</text>
</g>
<!-- nano_3kwppxjcggzs65fjh771ch6dbuic3xthsn5wsg6i5537jacw7m493ra8574x&#45;&gt;nano_15ju6jzwg6o3qp7zp3wtezbmeg39jn959o7f7irgz1mi6teipy1hdi9qup6i -->
<g id="edge16" class="edge">
<title>nano_3kwppxjcggzs65fjh771ch6dbuic3xthsn5wsg6i5537jacw7m493ra8574x&#45;&gt;nano_15ju6jzwg6o3qp7zp3wtezbmeg39jn959o7f7irgz1mi6teipy1hdi9qup6i</title>
<path fill="none" stroke="black" d="M128.44,-861.31C182.82,-819.05 328.82,-712.59 470.58,-670 714.51,-596.71 795.55,-696.25 1042.53,-634 1083.8,-623.6 1098.96,-623.61 1129.53,-594 1163.87,-560.74 1184.61,-507.9 1194.76,-475.73"/>
<polygon fill="black" stroke="black" points="1198.14,-476.65 1197.69,-466.07 1191.44,-474.63 1198.14,-476.65"/>
<text text-anchor="middle" x="756.56" y="-673.8" font-family="Times New Roman,serif" font-size="14.00">0.000048/4</text>
</g>
<!-- nano_3kwppxjcggzs65fjh771ch6dbuic3xthsn5wsg6i5537jacw7m493ra8574x&#45;&gt;nano_3w9p9xfnwqcjocyxudfag68c8dcfyxetkwbddjaoymp7cfxo5xf9wbyntdjg -->
<g id="edge32" class="edge">
<title>nano_3kwppxjcggzs65fjh771ch6dbuic3xthsn5wsg6i5537jacw7m493ra8574x&#45;&gt;nano_3w9p9xfnwqcjocyxudfag68c8dcfyxetkwbddjaoymp7cfxo5xf9wbyntdjg</title>
<path fill="none" stroke="black" d="M154.3,-894.11C176.65,-900.49 203.73,-907.28 228.58,-911 335.04,-926.94 363.01,-917.01 470.58,-921 799.41,-933.2 1192.8,-945.33 1347.26,-950"/>
<polygon fill="black" stroke="black" points="1347.42,-953.5 1357.52,-950.31 1347.63,-946.51 1347.42,-953.5"/>
<text text-anchor="middle" x="1095.03" y="-946.8" font-family="Times New Roman,serif" font-size="14.00">0.000417/7</text>
</g>
<!-- nano_1pnano1yzoxyk11geczosh1bwh97w5t1kfmokwz8hkgiy55h6a7rz6dyr1tm -->
<g id="node9" class="node">
<title>nano_1pnano1yzoxyk11geczosh1bwh97w5t1kfmokwz8hkgiy55h6a7rz6dyr1tm</title>
<g id="a_node9"><a xlink:href="https://nanocrawler.cc/explorer/account/nano_1pnano1yzoxyk11geczosh1bwh97w5t1kfmokwz8hkgiy55h6a7rz6dyr1tm/history" xlink:title="PlayNANO Hot Wallet #1">
<ellipse fill="none" stroke="black" cx="105.29" cy="-126" rx="105.08" ry="18"/>
<text text-anchor="middle" x="105.29" y="-122.3" font-family="Times New Roman,serif" font-size="14.00">PlayNANO Hot Wallet #1</text>
</a>
</g>
</g>
<!-- nano_1pnano1yzoxyk11geczosh1bwh97w5t1kfmokwz8hkgiy55h6a7rz6dyr1tm&#45;&gt;nano_3qdckuyaatbudh5g4mz9ws3ihb5uesth3n9m4rp5eojoed5zaz4ifd9xc1ig -->
<g id="edge6" class="edge">
<title>nano_1pnano1yzoxyk11geczosh1bwh97w5t1kfmokwz8hkgiy55h6a7rz6dyr1tm&#45;&gt;nano_3qdckuyaatbudh5g4mz9ws3ihb5uesth3n9m4rp5eojoed5zaz4ifd9xc1ig</title>
<path fill="none" stroke="black" d="M201.05,-133.59C297.24,-141.29 448.75,-153.43 569.11,-163.07"/>
<polygon fill="black" stroke="black" points="568.93,-166.56 579.18,-163.87 569.49,-159.59 568.93,-166.56"/>
<text text-anchor="middle" x="340.58" y="-157.8" font-family="Times New Roman,serif" font-size="14.00">0.000262/1</text>
</g>
<!-- nano_135a4boekhir8btsobsarjd6qoo4tq5p88jqoqeehcsnix1ug9fzpcfjgnkc -->
<g id="node10" class="node">
<title>nano_135a4boekhir8btsobsarjd6qoo4tq5p88jqoqeehcsnix1ug9fzpcfjgnkc</title>
<g id="a_node10"><a xlink:href="https://nanocrawler.cc/explorer/account/nano_135a4boekhir8btsobsarjd6qoo4tq5p88jqoqeehcsnix1ug9fzpcfjgnkc/history" xlink:title="Onion Faucet">
<ellipse fill="none" stroke="black" cx="105.29" cy="-72" rx="59.59" ry="18"/>
<text text-anchor="middle" x="105.29" y="-68.3" font-family="Times New Roman,serif" font-size="14.00">Onion Faucet</text>
</a>
</g>
</g>
<!-- nano_135a4boekhir8btsobsarjd6qoo4tq5p88jqoqeehcsnix1ug9fzpcfjgnkc&#45;&gt;nano_3qdckuyaatbudh5g4mz9ws3ihb5uesth3n9m4rp5eojoed5zaz4ifd9xc1ig -->
<g id="edge7" class="edge">
<title>nano_135a4boekhir8btsobsarjd6qoo4tq5p88jqoqeehcsnix1ug9fzpcfjgnkc&#45;&gt;nano_3qdckuyaatbudh5g4mz9ws3ihb5uesth3n9m4rp5eojoed5zaz4ifd9xc1ig</title>
<path fill="none" stroke="black" d="M161.94,-78.03C230.5,-85.73 350.45,-100.1 452.58,-117 525.29,-129.03 607.2,-145.71 667.5,-158.59"/>
<polygon fill="black" stroke="black" points="666.85,-162.03 677.36,-160.7 668.32,-155.18 666.85,-162.03"/>
<text text-anchor="middle" x="340.58" y="-120.8" font-family="Times New Roman,serif" font-size="14.00">0.000176256151955670471224331029/1</text>
</g>
<!-- nano_1pnano4teiy9frb1mnfo4q3dzeg9s71uyfjjw85weeemn7hjqbgaj35e7kb9 -->
<g id="node11" class="node">
<title>nano_1pnano4teiy9frb1mnfo4q3dzeg9s71uyfjjw85weeemn7hjqbgaj35e7kb9</title>
<g id="a_node11"><a xlink:href="https://nanocrawler.cc/explorer/account/nano_1pnano4teiy9frb1mnfo4q3dzeg9s71uyfjjw85weeemn7hjqbgaj35e7kb9/history" xlink:title="PlayNANO Hot Wallet #5">
<ellipse fill="none" stroke="black" cx="105.29" cy="-18" rx="105.08" ry="18"/>
<text text-anchor="middle" x="105.29" y="-14.3" font-family="Times New Roman,serif" font-size="14.00">PlayNANO Hot Wallet #5</text>
</a>
</g>
</g>
<!-- nano_1pnano4teiy9frb1mnfo4q3dzeg9s71uyfjjw85weeemn7hjqbgaj35e7kb9&#45;&gt;nano_3qdckuyaatbudh5g4mz9ws3ihb5uesth3n9m4rp5eojoed5zaz4ifd9xc1ig -->
<g id="edge8" class="edge">
<title>nano_1pnano4teiy9frb1mnfo4q3dzeg9s71uyfjjw85weeemn7hjqbgaj35e7kb9&#45;&gt;nano_3qdckuyaatbudh5g4mz9ws3ihb5uesth3n9m4rp5eojoed5zaz4ifd9xc1ig</title>
<path fill="none" stroke="black" d="M200.28,-25.9C270.53,-33.1 368.51,-45.9 452.58,-67 544.2,-89.99 646.56,-130.85 705.77,-156.06"/>
<polygon fill="black" stroke="black" points="704.68,-159.4 715.25,-160.12 707.44,-152.97 704.68,-159.4"/>
<text text-anchor="middle" x="340.58" y="-70.8" font-family="Times New Roman,serif" font-size="14.00">0.00026/1</text>
</g>
<!-- nano_1u15x5esbkkrd5asrbmnxkw73fycfk4itdanwmu3zaeojuomjq7yztcgrnim&#45;&gt;nano_3w9p9xfnwqcjocyxudfag68c8dcfyxetkwbddjaoymp7cfxo5xf9wbyntdjg -->
<g id="edge25" class="edge">
<title>nano_1u15x5esbkkrd5asrbmnxkw73fycfk4itdanwmu3zaeojuomjq7yztcgrnim&#45;&gt;nano_3w9p9xfnwqcjocyxudfag68c8dcfyxetkwbddjaoymp7cfxo5xf9wbyntdjg</title>
<path fill="none" stroke="black" d="M1248.52,-897.48C1275.04,-904.1 1309.36,-913.23 1339.32,-923 1349.36,-926.27 1360.01,-930.15 1370.04,-933.99"/>
<polygon fill="black" stroke="black" points="1368.83,-937.27 1379.42,-937.63 1371.37,-930.75 1368.83,-937.27"/>
<text text-anchor="middle" x="1308.32" y="-926.8" font-family="Times New Roman,serif" font-size="14.00">0.001077/1</text>
</g>
<!-- nano_15ju6jzwg6o3qp7zp3wtezbmeg39jn959o7f7irgz1mi6teipy1hdi9qup6i&#45;&gt;nano_3dfcy7uf4xzfxzo8htck9h9xko9saxinypjy5s9t34tat4wx8npkjrgbd79q -->
<g id="edge14" class="edge">
<title>nano_15ju6jzwg6o3qp7zp3wtezbmeg39jn959o7f7irgz1mi6teipy1hdi9qup6i&#45;&gt;nano_3dfcy7uf4xzfxzo8htck9h9xko9saxinypjy5s9t34tat4wx8npkjrgbd79q</title>
<path fill="none" stroke="black" d="M1185.67,-430.85C1171.79,-417.58 1150.93,-399.71 1129.53,-389 1093.13,-370.78 1052.34,-358.54 1011.46,-350.44"/>
<polygon fill="black" stroke="black" points="1012.11,-347 1001.63,-348.57 1010.8,-353.87 1012.11,-347"/>
<text text-anchor="middle" x="1095.03" y="-392.8" font-family="Times New Roman,serif" font-size="14.00">0.001857/1</text>
</g>
<!-- nano_1cggcp9qc5hs9hs3qcrjbaqr76ec5hgg9jdb4wzsqqiz76fuab3imgeciff7 -->
<g id="node14" class="node">
<title>nano_1cggcp9qc5hs9hs3qcrjbaqr76ec5hgg9jdb4wzsqqiz76fuab3imgeciff7</title>
<g id="a_node14"><a xlink:href="https://nanocrawler.cc/explorer/account/nano_1cggcp9qc5hs9hs3qcrjbaqr76ec5hgg9jdb4wzsqqiz76fuab3imgeciff7/history" xlink:title="nano_1cggc">
<ellipse fill="none" stroke="black" cx="1415.17" cy="-448" rx="55.49" ry="18"/>
<text text-anchor="middle" x="1415.17" y="-444.3" font-family="Times New Roman,serif" font-size="14.00">nano_1cggc</text>
</a>
</g>
</g>
<!-- nano_15ju6jzwg6o3qp7zp3wtezbmeg39jn959o7f7irgz1mi6teipy1hdi9qup6i&#45;&gt;nano_1cggcp9qc5hs9hs3qcrjbaqr76ec5hgg9jdb4wzsqqiz76fuab3imgeciff7 -->
<g id="edge15" class="edge">
<title>nano_15ju6jzwg6o3qp7zp3wtezbmeg39jn959o7f7irgz1mi6teipy1hdi9qup6i&#45;&gt;nano_1cggcp9qc5hs9hs3qcrjbaqr76ec5hgg9jdb4wzsqqiz76fuab3imgeciff7</title>
<path fill="none" stroke="black" d="M1256.27,-448C1284.38,-448 1319.38,-448 1349.28,-448"/>
<polygon fill="black" stroke="black" points="1349.62,-451.5 1359.62,-448 1349.62,-444.5 1349.62,-451.5"/>
<text text-anchor="middle" x="1308.32" y="-451.8" font-family="Times New Roman,serif" font-size="14.00">0.000036/1</text>
</g>
<!-- nano_1grkaycsjy5aezqhj8sxh4c5mpefne3di81jd1d5kd8wyghoke9f9dzrxi4c -->
<g id="node15" class="node">
<title>nano_1grkaycsjy5aezqhj8sxh4c5mpefne3di81jd1d5kd8wyghoke9f9dzrxi4c</title>
<g id="a_node15"><a xlink:href="https://nanocrawler.cc/explorer/account/nano_1grkaycsjy5aezqhj8sxh4c5mpefne3di81jd1d5kd8wyghoke9f9dzrxi4c/history" xlink:title="nano_1grka">
<ellipse fill="none" stroke="black" cx="756.56" cy="-394" rx="53.09" ry="18"/>
<text text-anchor="middle" x="756.56" y="-390.3" font-family="Times New Roman,serif" font-size="14.00">nano_1grka</text>
</a>
</g>
</g>
<!-- nano_1grkaycsjy5aezqhj8sxh4c5mpefne3di81jd1d5kd8wyghoke9f9dzrxi4c&#45;&gt;nano_15ju6jzwg6o3qp7zp3wtezbmeg39jn959o7f7irgz1mi6teipy1hdi9qup6i -->
<g id="edge18" class="edge">
<title>nano_1grkaycsjy5aezqhj8sxh4c5mpefne3di81jd1d5kd8wyghoke9f9dzrxi4c&#45;&gt;nano_15ju6jzwg6o3qp7zp3wtezbmeg39jn959o7f7irgz1mi6teipy1hdi9qup6i</title>
<path fill="none" stroke="black" d="M809.74,-392.44C882.37,-391.41 1017.64,-393.64 1129.53,-419 1140.51,-421.49 1152.01,-425.4 1162.54,-429.54"/>
<polygon fill="black" stroke="black" points="1161.31,-432.83 1171.89,-433.39 1163.97,-426.35 1161.31,-432.83"/>
<text text-anchor="middle" x="1095.03" y="-422.8" font-family="Times New Roman,serif" font-size="14.00">0.000044/1</text>
</g>
<!-- nano_3mqcpbrweoa7njom1eja4zbw1dotjckz8q3txtsk5cmusagpz6kokek59rgj -->
<g id="node16" class="node">
<title>nano_3mqcpbrweoa7njom1eja4zbw1dotjckz8q3txtsk5cmusagpz6kokek59rgj</title>
<g id="a_node16"><a xlink:href="https://nanocrawler.cc/explorer/account/nano_3mqcpbrweoa7njom1eja4zbw1dotjckz8q3txtsk5cmusagpz6kokek59rgj/history" xlink:title="nano_3mqcp">
<ellipse fill="none" stroke="black" cx="756.56" cy="-286" rx="58.49" ry="18"/>
<text text-anchor="middle" x="756.56" y="-282.3" font-family="Times New Roman,serif" font-size="14.00">nano_3mqcp</text>
</a>
</g>
</g>
<!-- nano_3mqcpbrweoa7njom1eja4zbw1dotjckz8q3txtsk5cmusagpz6kokek59rgj&#45;&gt;nano_15ju6jzwg6o3qp7zp3wtezbmeg39jn959o7f7irgz1mi6teipy1hdi9qup6i -->
<g id="edge19" class="edge">
<title>nano_3mqcpbrweoa7njom1eja4zbw1dotjckz8q3txtsk5cmusagpz6kokek59rgj&#45;&gt;nano_15ju6jzwg6o3qp7zp3wtezbmeg39jn959o7f7irgz1mi6teipy1hdi9qup6i</title>
<path fill="none" stroke="black" d="M803.74,-275.24C878.75,-260.51 1028.82,-242.75 1129.53,-308 1168.75,-333.41 1188.07,-387.1 1196.59,-420.11"/>
<polygon fill="black" stroke="black" points="1193.24,-421.14 1198.99,-430.04 1200.04,-419.5 1193.24,-421.14"/>
<text text-anchor="middle" x="1095.03" y="-311.8" font-family="Times New Roman,serif" font-size="14.00">0.000352/2</text>
</g>
<!-- nano_3uhky1f9756ahbskfx45bapfurm97oyew5wiy76oeyghnk4631kb9xztis4z -->
<g id="node17" class="node">
<title>nano_3uhky1f9756ahbskfx45bapfurm97oyew5wiy76oeyghnk4631kb9xztis4z</title>
<g id="a_node17"><a xlink:href="https://nanocrawler.cc/explorer/account/nano_3uhky1f9756ahbskfx45bapfurm97oyew5wiy76oeyghnk4631kb9xztis4z/history" xlink:title="nano_3uhky">
<ellipse fill="none" stroke="black" cx="756.56" cy="-232" rx="55.49" ry="18"/>
<text text-anchor="middle" x="756.56" y="-228.3" font-family="Times New Roman,serif" font-size="14.00">nano_3uhky</text>
</a>
</g>
</g>
<!-- nano_3uhky1f9756ahbskfx45bapfurm97oyew5wiy76oeyghnk4631kb9xztis4z&#45;&gt;nano_15ju6jzwg6o3qp7zp3wtezbmeg39jn959o7f7irgz1mi6teipy1hdi9qup6i -->
<g id="edge20" class="edge">
<title>nano_3uhky1f9756ahbskfx45bapfurm97oyew5wiy76oeyghnk4631kb9xztis4z&#45;&gt;nano_15ju6jzwg6o3qp7zp3wtezbmeg39jn959o7f7irgz1mi6teipy1hdi9qup6i</title>
<path fill="none" stroke="black" d="M801.65,-221.53C876.97,-206.38 1031.73,-187.48 1129.53,-260 1180.75,-297.98 1195.99,-377.08 1200.51,-419.57"/>
<polygon fill="black" stroke="black" points="1197.05,-420.15 1201.47,-429.78 1204.02,-419.5 1197.05,-420.15"/>
<text text-anchor="middle" x="1095.03" y="-263.8" font-family="Times New Roman,serif" font-size="14.00">0.000069/2</text>
</g>
<!-- nano_1dbhm3bh4twzi4r7bwkjes3nyoyqtt7kweo3g5nityb877a9txkifqbu44gm -->
<g id="node18" class="node">
<title>nano_1dbhm3bh4twzi4r7bwkjes3nyoyqtt7kweo3g5nityb877a9txkifqbu44gm</title>
<g id="a_node18"><a xlink:href="https://nanocrawler.cc/explorer/account/nano_1dbhm3bh4twzi4r7bwkjes3nyoyqtt7kweo3g5nityb877a9txkifqbu44gm/history" xlink:title="nano_1dbhm">
<ellipse fill="none" stroke="black" cx="756.56" cy="-607" rx="58.49" ry="18"/>
<text text-anchor="middle" x="756.56" y="-603.3" font-family="Times New Roman,serif" font-size="14.00">nano_1dbhm</text>
</a>
</g>
</g>
<!-- nano_1dbhm3bh4twzi4r7bwkjes3nyoyqtt7kweo3g5nityb877a9txkifqbu44gm&#45;&gt;nano_15ju6jzwg6o3qp7zp3wtezbmeg39jn959o7f7irgz1mi6teipy1hdi9qup6i -->
<g id="edge21" class="edge">
<title>nano_1dbhm3bh4twzi4r7bwkjes3nyoyqtt7kweo3g5nityb877a9txkifqbu44gm&#45;&gt;nano_15ju6jzwg6o3qp7zp3wtezbmeg39jn959o7f7irgz1mi6teipy1hdi9qup6i</title>
<path fill="none" stroke="black" d="M815.06,-607.17C873.33,-606.05 965.62,-600.68 1042.53,-580 1083.63,-568.95 1096.06,-566.29 1129.53,-540 1152.88,-521.66 1173.26,-494.4 1186.49,-474.31"/>
<polygon fill="black" stroke="black" points="1189.6,-475.95 1192.05,-465.64 1183.7,-472.17 1189.6,-475.95"/>
<text text-anchor="middle" x="1095.03" y="-578.8" font-family="Times New Roman,serif" font-size="14.00">0.000226/1</text>
</g>
<!-- nano_3c6rwdgiadro8hnx5pcx6o1xor4cpwkifbqpxiod3khu51q43gc7i6osbkfg -->
<g id="node19" class="node">
<title>nano_3c6rwdgiadro8hnx5pcx6o1xor4cpwkifbqpxiod3khu51q43gc7i6osbkfg</title>
<g id="a_node19"><a xlink:href="https://nanocrawler.cc/explorer/account/nano_3c6rwdgiadro8hnx5pcx6o1xor4cpwkifbqpxiod3khu51q43gc7i6osbkfg/history" xlink:title="nano_3c6rw">
<ellipse fill="none" stroke="black" cx="756.56" cy="-553" rx="55.79" ry="18"/>
<text text-anchor="middle" x="756.56" y="-549.3" font-family="Times New Roman,serif" font-size="14.00">nano_3c6rw</text>
</a>
</g>
</g>
<!-- nano_3c6rwdgiadro8hnx5pcx6o1xor4cpwkifbqpxiod3khu51q43gc7i6osbkfg&#45;&gt;nano_15ju6jzwg6o3qp7zp3wtezbmeg39jn959o7f7irgz1mi6teipy1hdi9qup6i -->
<g id="edge22" class="edge">
<title>nano_3c6rwdgiadro8hnx5pcx6o1xor4cpwkifbqpxiod3khu51q43gc7i6osbkfg&#45;&gt;nano_15ju6jzwg6o3qp7zp3wtezbmeg39jn959o7f7irgz1mi6teipy1hdi9qup6i</title>
<path fill="none" stroke="black" d="M812.47,-552.61C870.46,-551.1 964.15,-545.46 1042.53,-526 1083.14,-515.91 1091.99,-508.48 1129.53,-490 1142.37,-483.68 1156.07,-476.04 1168.08,-469.02"/>
<polygon fill="black" stroke="black" points="1170.07,-471.91 1176.89,-463.8 1166.51,-465.88 1170.07,-471.91"/>
<text text-anchor="middle" x="1095.03" y="-524.8" font-family="Times New Roman,serif" font-size="14.00">0.000226/1</text>
</g>
<!-- nano_1dragoncc4e1gt1eesn39waofnsc6boxjrnzt1x8hosr7snpjqy7xyyrpzfd -->
<g id="node20" class="node">
<title>nano_1dragoncc4e1gt1eesn39waofnsc6boxjrnzt1x8hosr7snpjqy7xyyrpzfd</title>
<g id="a_node20"><a xlink:href="https://nanocrawler.cc/explorer/account/nano_1dragoncc4e1gt1eesn39waofnsc6boxjrnzt1x8hosr7snpjqy7xyyrpzfd/history" xlink:title="nano_1drag">
<ellipse fill="none" stroke="black" cx="756.56" cy="-712" rx="53.89" ry="18"/>
<text text-anchor="middle" x="756.56" y="-708.3" font-family="Times New Roman,serif" font-size="14.00">nano_1drag</text>
</a>
</g>
</g>
<!-- nano_1dragoncc4e1gt1eesn39waofnsc6boxjrnzt1x8hosr7snpjqy7xyyrpzfd&#45;&gt;nano_15ju6jzwg6o3qp7zp3wtezbmeg39jn959o7f7irgz1mi6teipy1hdi9qup6i -->
<g id="edge23" class="edge">
<title>nano_1dragoncc4e1gt1eesn39waofnsc6boxjrnzt1x8hosr7snpjqy7xyyrpzfd&#45;&gt;nano_15ju6jzwg6o3qp7zp3wtezbmeg39jn959o7f7irgz1mi6teipy1hdi9qup6i</title>
<path fill="none" stroke="black" d="M810.01,-709.2C906.66,-703.59 1105.26,-689.79 1129.53,-670 1188.72,-621.74 1200.28,-524.4 1202.25,-476.27"/>
<polygon fill="black" stroke="black" points="1205.75,-476.33 1202.55,-466.23 1198.75,-476.12 1205.75,-476.33"/>
<text text-anchor="middle" x="1095.03" y="-691.8" font-family="Times New Roman,serif" font-size="14.00">0.000494/1</text>
</g>
<!-- nano_1dragoncc4e1gt1eesn39waofnsc6boxjrnzt1x8hosr7snpjqy7xyyrpzfd&#45;&gt;nano_3w9p9xfnwqcjocyxudfag68c8dcfyxetkwbddjaoymp7cfxo5xf9wbyntdjg -->
<g id="edge33" class="edge">
<title>nano_1dragoncc4e1gt1eesn39waofnsc6boxjrnzt1x8hosr7snpjqy7xyyrpzfd&#45;&gt;nano_3w9p9xfnwqcjocyxudfag68c8dcfyxetkwbddjaoymp7cfxo5xf9wbyntdjg</title>
<path fill="none" stroke="black" d="M810.9,-712.04C947.04,-712.63 1299.44,-717.42 1339.32,-751 1391.82,-795.2 1407.52,-879.94 1412.2,-923.94"/>
<polygon fill="black" stroke="black" points="1408.72,-924.32 1413.14,-933.94 1415.68,-923.66 1408.72,-924.32"/>
<text text-anchor="middle" x="1203.43" y="-734.8" font-family="Times New Roman,serif" font-size="14.00">0.000687/2</text>
</g>
<!-- nano_377ocukamcdgx4rsi8ne19heu9gsqionges3d4zbwirankgthmibep6ncjx5 -->
<g id="node21" class="node">
<title>nano_377ocukamcdgx4rsi8ne19heu9gsqionges3d4zbwirankgthmibep6ncjx5</title>
<g id="a_node21"><a xlink:href="https://nanocrawler.cc/explorer/account/nano_377ocukamcdgx4rsi8ne19heu9gsqionges3d4zbwirankgthmibep6ncjx5/history" xlink:title="nano_377oc">
<ellipse fill="none" stroke="black" cx="756.56" cy="-499" rx="55.79" ry="18"/>
<text text-anchor="middle" x="756.56" y="-495.3" font-family="Times New Roman,serif" font-size="14.00">nano_377oc</text>
</a>
</g>
</g>
<!-- nano_377ocukamcdgx4rsi8ne19heu9gsqionges3d4zbwirankgthmibep6ncjx5&#45;&gt;nano_15ju6jzwg6o3qp7zp3wtezbmeg39jn959o7f7irgz1mi6teipy1hdi9qup6i -->
<g id="edge24" class="edge">
<title>nano_377ocukamcdgx4rsi8ne19heu9gsqionges3d4zbwirankgthmibep6ncjx5&#45;&gt;nano_15ju6jzwg6o3qp7zp3wtezbmeg39jn959o7f7irgz1mi6teipy1hdi9qup6i</title>
<path fill="none" stroke="black" d="M811.33,-495.19C883.83,-489.7 1016.82,-478.39 1129.53,-462 1135.41,-461.14 1141.54,-460.14 1147.64,-459.08"/>
<polygon fill="black" stroke="black" points="1148.6,-462.46 1157.82,-457.23 1147.35,-455.57 1148.6,-462.46"/>
<text text-anchor="middle" x="1095.03" y="-474.8" font-family="Times New Roman,serif" font-size="14.00">0.000298/1</text>
</g>
<!-- nano_3f7o897cqtsppzn87j8yuceo5y4p3nqnmsdb87f9tfif8k1nf9phw9gwtghh -->
<g id="node23" class="node">
<title>nano_3f7o897cqtsppzn87j8yuceo5y4p3nqnmsdb87f9tfif8k1nf9phw9gwtghh</title>
<g id="a_node23"><a xlink:href="https://nanocrawler.cc/explorer/account/nano_3f7o897cqtsppzn87j8yuceo5y4p3nqnmsdb87f9tfif8k1nf9phw9gwtghh/history" xlink:title="nano_3f7o8">
<ellipse fill="none" stroke="black" cx="1203.43" cy="-1106" rx="53.89" ry="18"/>
<text text-anchor="middle" x="1203.43" y="-1102.3" font-family="Times New Roman,serif" font-size="14.00">nano_3f7o8</text>
</a>
</g>
</g>
<!-- nano_3f7o897cqtsppzn87j8yuceo5y4p3nqnmsdb87f9tfif8k1nf9phw9gwtghh&#45;&gt;nano_3w9p9xfnwqcjocyxudfag68c8dcfyxetkwbddjaoymp7cfxo5xf9wbyntdjg -->
<g id="edge28" class="edge">
<title>nano_3f7o897cqtsppzn87j8yuceo5y4p3nqnmsdb87f9tfif8k1nf9phw9gwtghh&#45;&gt;nano_3w9p9xfnwqcjocyxudfag68c8dcfyxetkwbddjaoymp7cfxo5xf9wbyntdjg</title>
<path fill="none" stroke="black" d="M1243.38,-1093.88C1271.85,-1083.79 1310.36,-1067.42 1339.32,-1045 1363.3,-1026.43 1384.32,-998.7 1397.93,-978.35"/>
<polygon fill="black" stroke="black" points="1400.94,-980.14 1403.47,-969.86 1395.08,-976.32 1400.94,-980.14"/>
<text text-anchor="middle" x="1308.32" y="-1082.8" font-family="Times New Roman,serif" font-size="14.00">0.001870/2</text>
</g>
<!-- nano_1wt8tthkwntystwxcqfmuktohxfdhtjr495u4ahxsk4pxu8whp9tnbruc3t5 -->
<g id="node24" class="node">
<title>nano_1wt8tthkwntystwxcqfmuktohxfdhtjr495u4ahxsk4pxu8whp9tnbruc3t5</title>
<g id="a_node24"><a xlink:href="https://nanocrawler.cc/explorer/account/nano_1wt8tthkwntystwxcqfmuktohxfdhtjr495u4ahxsk4pxu8whp9tnbruc3t5/history" xlink:title="nano_1wt8t">
<ellipse fill="none" stroke="black" cx="1203.43" cy="-1052" rx="53.09" ry="18"/>
<text text-anchor="middle" x="1203.43" y="-1048.3" font-family="Times New Roman,serif" font-size="14.00">nano_1wt8t</text>
</a>
</g>
</g>
<!-- nano_1wt8tthkwntystwxcqfmuktohxfdhtjr495u4ahxsk4pxu8whp9tnbruc3t5&#45;&gt;nano_3w9p9xfnwqcjocyxudfag68c8dcfyxetkwbddjaoymp7cfxo5xf9wbyntdjg -->
<g id="edge29" class="edge">
<title>nano_1wt8tthkwntystwxcqfmuktohxfdhtjr495u4ahxsk4pxu8whp9tnbruc3t5&#45;&gt;nano_3w9p9xfnwqcjocyxudfag68c8dcfyxetkwbddjaoymp7cfxo5xf9wbyntdjg</title>
<path fill="none" stroke="black" d="M1242.52,-1039.63C1270.04,-1030.15 1307.75,-1016 1339.32,-1000 1353.98,-992.57 1369.38,-983.02 1382.38,-974.4"/>
<polygon fill="black" stroke="black" points="1384.63,-977.11 1390.96,-968.62 1380.71,-971.31 1384.63,-977.11"/>
<text text-anchor="middle" x="1308.32" y="-1029.8" font-family="Times New Roman,serif" font-size="14.00">0.000822/1</text>
</g>
<!-- nano_1kq6nxe6odi49yf18irpzzh1qb4153f1q1azxiqeez9amtonksrbi5tuakmm -->
<g id="node25" class="node">
<title>nano_1kq6nxe6odi49yf18irpzzh1qb4153f1q1azxiqeez9amtonksrbi5tuakmm</title>
<g id="a_node25"><a xlink:href="https://nanocrawler.cc/explorer/account/nano_1kq6nxe6odi49yf18irpzzh1qb4153f1q1azxiqeez9amtonksrbi5tuakmm/history" xlink:title="nano_1kq6n">
<ellipse fill="none" stroke="black" cx="1203.43" cy="-998" rx="55.79" ry="18"/>
<text text-anchor="middle" x="1203.43" y="-994.3" font-family="Times New Roman,serif" font-size="14.00">nano_1kq6n</text>
</a>
</g>
</g>
<!-- nano_1kq6nxe6odi49yf18irpzzh1qb4153f1q1azxiqeez9amtonksrbi5tuakmm&#45;&gt;nano_3w9p9xfnwqcjocyxudfag68c8dcfyxetkwbddjaoymp7cfxo5xf9wbyntdjg -->
<g id="edge30" class="edge">
<title>nano_1kq6nxe6odi49yf18irpzzh1qb4153f1q1azxiqeez9amtonksrbi5tuakmm&#45;&gt;nano_3w9p9xfnwqcjocyxudfag68c8dcfyxetkwbddjaoymp7cfxo5xf9wbyntdjg</title>
<path fill="none" stroke="black" d="M1250.19,-987.96C1281.65,-981.06 1323.65,-971.85 1357.26,-964.48"/>
<polygon fill="black" stroke="black" points="1358.39,-967.82 1367.41,-962.26 1356.89,-960.98 1358.39,-967.82"/>
<text text-anchor="middle" x="1308.32" y="-984.8" font-family="Times New Roman,serif" font-size="14.00">0.001243/1</text>
</g>
</g>
</svg>
